<svg width="67" height="72" viewBox="0 0 67 72" fill="none" xmlns="http://www.w3.org/2000/svg">
<g id="Clip path group">
<mask id="mask0_231_350" style="mask-type:luminance" maskUnits="userSpaceOnUse" x="0" y="0" width="67" height="72">
<g id="a9d04d92b5">
<path id="Vector" d="M0.365601 0H66.3334V72H0.365601V0Z" fill="white"/>
</g>
</mask>
<g mask="url(#mask0_231_350)">
<g id="Group">
<path id="Vector_2" d="M64.7293 34.6408C64.675 34.4821 64.6206 34.3234 64.5662 34.1761C64.5255 34.0854 64.4847 33.9834 64.4575 33.8927C64.4303 33.836 64.4167 33.7794 64.3895 33.734C64.3351 33.598 64.2808 33.4733 64.2264 33.3486C64.2264 33.326 64.2128 33.3146 64.1992 33.292C63.3157 31.263 62.0243 29.4041 60.3523 27.7491L60.2708 27.6811C58.191 25.6635 55.6219 24.0653 52.7673 22.9771C49.2875 21.2542 44.6114 19.0665 40.8325 17.2983C37.8012 15.8814 35.1913 14.6685 34.3078 14.1925C29.8628 11.8801 25.445 9.54511 21.0272 7.2101L14.4074 3.67357C13.3063 3.08415 12.2053 2.49473 11.1178 1.89398C10.5741 1.59927 10.0304 1.29322 9.48663 0.987175C9.21477 0.839821 8.9429 0.68113 8.67104 0.522441C8.53511 0.443095 8.39917 0.375083 8.27684 0.284403L7.88263 0.0350342L8.26324 0.295741C8.39917 0.375084 8.53511 0.454429 8.65745 0.533775C8.92931 0.692466 9.18758 0.862489 9.45944 1.00984C10.0032 1.32723 10.5333 1.6446 11.077 1.95065C12.1509 2.56274 13.2383 3.17483 14.3258 3.78692L20.8505 7.42546C21.8428 7.98088 22.8351 8.52496 23.8274 9.06904C22.8351 9.18239 20.8234 9.32974 19.5864 8.92168L11.1314 4.24032L10.9547 4.45569L11.1314 4.22899C9.85364 3.59423 8.58948 2.94813 7.32531 2.2907C6.70002 1.95065 6.07474 1.62194 5.46304 1.27055C5.1504 1.10052 4.83776 0.919164 4.53871 0.737804C4.38919 0.647123 4.25325 0.545108 4.10373 0.454428C3.9678 0.352414 3.81827 0.250401 3.72311 0.114381C3.80468 0.261735 3.94061 0.363749 4.07654 0.477101C4.21247 0.579115 4.3484 0.692467 4.49793 0.794481C4.78339 0.987176 5.06884 1.1912 5.36789 1.37256C5.9524 1.75796 6.5505 2.13201 7.1486 2.50607C7.9506 2.99347 8.7526 3.46954 9.5546 3.94561L2.13272 2.7101L10.8324 4.70506L19.1242 9.29574L19.097 9.31841C19.165 9.34108 19.2194 9.36375 19.2873 9.38642L19.5048 9.5111L23.7867 12.2655C21.3807 11.6988 17.996 11.064 17.4794 10.962C16.5415 10.4292 9.7585 7.68617 8.10012 7.15342L8.03216 7.07408C7.97779 7.00607 7.90982 6.94939 7.84185 6.88138C7.71952 6.7567 7.58359 6.65468 7.44765 6.54133C7.18938 6.31463 6.91752 6.09927 6.64565 5.89523C6.08833 5.47584 5.53101 5.07911 4.97369 4.68239C3.84546 3.90027 2.69004 3.12949 1.53461 2.37005C2.62207 3.1975 3.70953 4.02496 4.7562 4.88642C5.28634 5.30581 5.81647 5.73655 6.31942 6.17861C6.5641 6.40531 6.80877 6.62068 7.05345 6.85871C7.09423 6.90405 7.1486 6.94939 7.18938 6.99473C7.12142 6.9834 7.03986 6.97206 6.97189 6.96073L6.14271 6.83604L4.49793 6.57534L1.19479 6.04259L4.41637 6.83604L6.03396 7.22143L6.84955 7.41413C7.13501 7.48214 7.37969 7.53881 7.69233 7.59549C8.29043 7.67483 16.5959 11.03 17.126 11.3927C17.3435 11.5741 19.1786 13.7731 20.5243 15.4166L10.9683 13.7277L1.11322 9.6698L10.3294 14.0338L5.66694 17.661L0.74621 17.797L5.68053 18.1824L12.5587 22.5237L7.20297 27.4998L7.23016 27.5224L0.596685 28.3046L7.43406 28.0098L12.7762 34.4935L7.02626 40.8864L0.365601 42.1899L7.05345 41.4078L12.5043 49.1383L6.72721 58.0703L1.26275 58.263L6.71362 58.5804L11.2266 66.7189C10.6149 67.5124 10.0168 68.3285 9.41866 69.1333L8.41277 70.5048C8.08653 70.9695 7.76029 71.4343 7.43406 71.899C7.82826 71.4683 8.19528 71.0376 8.57589 70.5955L9.69053 69.292C10.4246 68.4305 11.1314 67.569 11.8383 66.7076L14.1763 66.0501C14.9783 65.8234 15.7803 65.5854 16.5823 65.3587C17.3843 65.132 18.1727 64.894 18.9747 64.6559C19.6679 64.4519 20.3612 64.2479 21.0408 64.0325L21.4214 65.8008C21.5846 66.4922 21.7341 67.1723 21.8972 67.8637C22.2099 69.2353 22.5361 70.5955 22.9031 71.967C22.7264 70.5728 22.5089 69.1899 22.2914 67.8071C22.1827 67.1156 22.0467 66.4242 21.938 65.7328L21.5846 63.7945L28.4355 56.2567C28.9385 56.166 30.8687 55.8146 32.9077 55.3952C34.4029 56.1207 35.9934 56.6988 37.6517 57.1182L37.842 62.6383C37.3255 63.3411 36.8361 64.0439 36.3468 64.758C35.8438 65.4947 35.3545 66.2315 34.8787 66.9796C34.3893 67.7277 33.9272 68.4872 33.4922 69.2466C33.0572 70.0174 32.6358 70.7882 32.2824 71.5816C32.6766 70.8109 33.1524 70.0514 33.6281 69.3146C34.1175 68.5665 34.6204 67.8411 35.1506 67.1156C35.6671 66.3902 36.2108 65.6761 36.7546 64.962C37.2711 64.2819 37.8012 63.6131 38.345 62.9444L45.427 62.0716C45.427 62.7857 45.3998 63.4884 45.3591 64.2025C45.3183 65.0187 45.2503 65.8234 45.1552 66.6396C45.0464 67.4444 44.9241 68.2605 44.7202 69.0539C44.625 69.4507 44.5027 69.8474 44.3532 70.2328C44.19 70.6182 43.9997 70.9922 43.7279 71.3323C44.0269 71.0149 44.2444 70.6295 44.4211 70.2554C44.5978 69.87 44.7474 69.4847 44.8697 69.0879C45.128 68.2945 45.3047 67.4784 45.4678 66.6736C45.6173 65.8575 45.7397 65.0413 45.8348 64.2252C45.93 63.4431 45.9979 62.6496 46.0523 61.8562L49.8176 57.1635C51.8838 56.6648 53.814 55.928 55.5404 54.9872H55.5539L55.6491 54.9305C56.0977 54.6925 56.5462 54.4204 56.9676 54.1484H57.2939L57.2123 54.2957C56.9948 54.6585 56.7909 55.0325 56.587 55.3952C56.1656 56.1433 55.7578 56.8801 55.3636 57.6282C54.5616 59.1131 53.7732 60.6093 52.9984 62.1056C52.21 63.6018 51.4352 65.098 50.674 66.6056C50.2934 67.3537 49.9128 68.1131 49.5458 68.8612C49.3555 69.2466 49.1787 69.6207 49.002 69.9947C48.9069 70.1874 48.8253 70.3801 48.7302 70.5728C48.6894 70.6635 48.6486 70.7655 48.6078 70.8562C48.6622 70.7655 48.703 70.6748 48.7574 70.5728C48.8389 70.3915 48.9341 70.1988 49.0292 70.0174C49.2331 69.632 49.4234 69.258 49.6273 68.8952C50.0215 68.1471 50.4157 67.399 50.8235 66.6622C51.6255 65.1774 52.4547 63.6925 53.2839 62.2189C54.0995 60.734 54.9422 59.2605 55.785 57.7983C56.2064 57.0615 56.6414 56.336 57.0764 55.5993C57.2939 55.2365 57.5114 54.8738 57.7425 54.5111L58.0823 53.9784L58.4357 53.4569C58.6124 53.2076 58.8435 52.9129 59.129 52.5728C60.4339 51.4733 61.5893 50.2378 62.5273 48.9003L62.5816 48.8209V48.7983C65.4498 44.661 66.3877 39.5942 64.7293 34.6408ZM49.4642 56.336C46.9631 56.9255 44.4347 57.1068 41.9743 56.9255C42.3957 56.7328 42.7084 56.5627 42.8851 56.4607C43.1298 56.4834 43.5512 56.5061 44.1357 56.5061C45.5494 56.5061 47.833 56.336 50.4157 55.4632L49.7904 56.2567C49.6817 56.2794 49.5729 56.302 49.4642 56.336ZM30.5969 19.2479C31.8066 19.2592 39.2013 20.5741 40.3024 20.9255C40.5063 20.9935 40.9956 21.1862 41.6209 21.4469C41.4442 21.4582 41.2539 21.4809 41.0636 21.5035C38.6984 21.7529 36.3875 22.3423 34.2398 23.2265C33.2339 23.6459 32.2552 24.1333 31.3309 24.6887C31.0998 24.8247 28.7482 26.4683 28.7618 26.4683L24.3712 22.9544L30.5969 19.2479ZM42.8715 55.5653C41.2539 54.9758 39.881 54.0917 38.8751 53.3209C40.5878 51.8587 44.4755 48.5262 44.9784 48.1408C45.2911 47.9255 47.9554 47.3927 51.0002 46.8713L53.2431 48.4809C52.8217 51.1559 52.1964 52.8109 51.9246 53.4683C51.5847 53.8537 51.3401 54.0917 51.2313 54.1937C47.1126 55.9166 43.4016 55.6219 42.8715 55.5653ZM53.2023 51.6433C53.4198 50.8952 53.6373 49.9884 53.814 48.8889L54.3577 49.2743C53.9907 50.1925 53.5965 50.9859 53.2023 51.6433ZM61.0592 45.4204C58.4765 47.5627 55.8938 48.4129 55.0918 48.6396L53.9771 47.8461C54.0451 47.3474 54.0995 46.826 54.1538 46.2705C55.0238 45.7605 60.0397 42.7454 61.5214 40.8411C61.6709 40.8411 61.902 40.8524 62.1602 40.8524C62.0515 42.1333 61.7524 43.7428 61.0592 45.4204ZM37.3527 52.0061L40.1393 46.8486C41.1316 46.8146 42.3957 46.6559 43.6735 46.4746L44.3939 47.8801C43.4832 48.6169 40.0033 51.598 38.4265 52.9582C37.9236 52.5615 37.5566 52.2101 37.3527 52.0061ZM30.3522 40.6144L28.9793 39.0501C30.6104 39.2995 33.3291 39.6962 34.8651 39.8776C35.001 40.127 35.137 40.3537 35.2729 40.5804L30.3522 40.6144ZM28.1229 38.03C27.0626 34.8675 27.3345 32.5665 27.3753 32.2038C27.5384 31.9091 28.5171 30.3222 31.3037 28.2705C34.2942 28.2932 38.1139 28.3612 40.1257 28.4746L41.1588 33.462C38.1003 35.797 35.6807 38.2907 35.001 39.0048C33.0572 38.7668 29.2511 38.2 28.1229 38.03ZM41.4578 28.6106C42.0423 28.8146 45.8212 32.1018 48.2136 34.2441L47.2077 35.1169C45.1008 34.2894 42.9395 33.5527 42.1918 33.3033L41.2131 28.5653C41.3219 28.5766 41.4034 28.5993 41.4578 28.6106ZM50.2798 36.4318C49.5729 36.0804 48.7166 35.7177 47.8058 35.3549L48.8117 34.4821C50.2798 34.0627 53.7868 33.8927 56.1656 33.8134C54.4257 34.8222 51.1905 36.0804 50.2798 36.4318ZM55.2413 27.6018C55.5404 28.2365 56.9404 31.3423 56.7501 33.2693C54.4393 33.326 50.4973 33.496 48.7302 33.9494C47.5883 32.9179 43.6463 29.3927 42.1511 28.3839C44.0133 27.4091 47.2893 25.6748 48.6214 24.8587C50.1846 25.2781 52.8081 26.1282 55.2413 27.6018ZM47.8738 24.666C46.4601 25.4821 43.5512 27.0237 41.5258 28.0779C41.417 28.0665 41.2675 28.0439 41.1044 28.0212L40.9413 27.2391C41.485 26.8197 43.388 25.5275 47.3573 24.5413C47.466 24.564 47.6427 24.6093 47.8738 24.666ZM33.2747 26.933C33.7233 26.831 36.2108 26.3663 39.9082 27.4204L40.0169 27.9418C37.8692 27.8285 34.2534 27.7718 32.0241 27.7491C32.4183 27.4771 32.8397 27.2051 33.2747 26.933ZM44.9377 47.5854L44.3124 46.3726C46.4057 46.0438 48.3767 45.6471 49.0836 45.4998L50.3885 46.4292C48.2816 46.792 45.8892 47.2567 44.9377 47.5854ZM49.7904 44.8537C50.674 40.9318 50.7691 38.098 50.7691 37.2139C51.8838 36.7831 55.5811 35.3323 57.2531 34.2328C57.6745 34.4708 58.4765 34.9469 59.36 35.6043C60.2572 37.6106 60.8961 40.0023 61.032 40.5124C59.6319 42.36 54.3034 45.5338 53.7189 45.8852C53.3247 45.9418 52.5906 46.0665 51.6935 46.2139L49.7904 44.8537ZM53.5014 46.4519C53.4742 46.792 53.4334 47.1093 53.3926 47.4267L52.3052 46.6446C52.6994 46.5879 53.1072 46.5199 53.5014 46.4519ZM61.6165 40.3083C61.467 39.7416 61.0184 38.0753 60.3659 36.3978C61.0048 36.9532 61.6437 37.5879 62.1602 38.2794C62.1874 38.5401 62.2418 39.2768 62.1874 40.3197C61.9835 40.3197 61.7796 40.3197 61.6165 40.3083ZM63.2069 38.2567C63.4108 38.0073 63.8322 37.4632 64.1856 36.6358C64.4303 37.758 64.5255 38.8915 64.4983 40.0023C64.172 40.1383 63.7235 40.229 63.2477 40.2743C63.3021 39.2995 63.2477 38.5741 63.2069 38.2567ZM55.8394 26.8763C54.9151 26.3209 53.9635 25.8449 53.0528 25.4481C54.3985 25.7202 55.8122 25.9695 56.8181 26.1056C57.2395 26.3889 57.6609 26.695 58.0551 27.0124C57.457 26.9217 56.7637 26.8877 55.8394 26.8763ZM49.4778 24.1446C49.7497 23.8726 50.1439 23.4985 50.4973 23.1698C52.346 23.7025 54.0995 24.4507 55.7035 25.4028C53.5286 25.0287 50.5924 24.394 49.4778 24.1446ZM32.5815 26.2756C31.7659 26.7743 31.059 27.2617 30.4337 27.7265C30.393 27.7265 30.3522 27.7265 30.325 27.7265L29.523 27.0804C30.6784 26.1396 31.9698 25.3121 33.397 24.6093C33.0572 25.0854 32.7446 25.6522 32.5815 26.2756ZM25.6625 44.1396C25.7849 42.0313 27.416 39.6509 27.9598 38.9028C28.0006 38.9028 28.0413 38.9028 28.0821 38.9141L29.8084 40.8864L26.2198 45.3751C26.0295 44.9897 25.8392 44.5703 25.6625 44.1396ZM30.3658 41.1358L35.572 41.1131C37.2303 43.9129 38.712 45.8398 39.2013 46.4519L36.4011 51.6433C32.9757 51.6887 30.2298 50.5552 29.8356 50.3852C29.591 50.1925 28.1093 48.9569 26.5189 45.9532L30.3658 41.1358ZM62.5137 46.7806C62.3913 46.2365 62.201 45.8512 62.0787 45.6358C62.8127 43.8335 63.1118 42.1446 63.2205 40.8071C63.6419 40.7731 64.0905 40.7051 64.4711 40.5917C64.4031 41.5212 64.2536 42.4506 64.0089 43.3575C63.6283 44.5816 63.0982 45.7265 62.5137 46.7806ZM48.8525 23.9632C48.567 23.8386 48.0641 23.6232 47.4524 23.3512C47.2213 23.0678 46.8679 22.7164 46.365 22.365C47.5476 22.4897 48.7166 22.7051 49.8448 22.9884C49.4778 23.3285 49.0836 23.7139 48.8525 23.9632ZM29.7677 28.0212L26.0839 31.8071C25.7577 31.9091 25.445 32.0224 25.1868 32.1358C26.1655 30.4129 27.4704 28.826 29.0744 27.4544L29.7677 28.0212ZM24.6974 44.5023C24.9693 45.1371 25.2547 45.7151 25.5266 46.2479L25.0372 46.8486C24.6023 46.0552 24.2352 45.2164 23.9498 44.3436C23.8818 44.1509 23.8139 43.9469 23.7595 43.7542C24.1673 44.1622 24.4935 44.3889 24.6974 44.5023ZM25.8392 46.8146C27.2529 49.3763 28.5715 50.5779 29.02 50.9519C29.0608 51.2806 29.1288 51.598 29.2239 51.8927C27.6743 50.6005 26.3694 49.093 25.3635 47.4041L25.8392 46.8146ZM20.7962 9.68113C21.136 9.7038 21.4894 9.71513 21.8292 9.71513C23.2022 9.71513 24.4255 9.53377 24.5207 9.52244L24.4935 9.44309C27.6471 11.1887 30.8007 12.9229 33.968 14.6459C34.8787 15.1219 37.3663 16.2894 40.5199 17.763C43.3065 19.0552 46.5688 20.5854 49.4778 21.991C48.7302 21.6169 47.398 21.5829 46.5417 21.4922C45.4542 21.3789 44.326 21.3335 43.2385 21.3562C43.1026 21.3562 42.9802 21.3675 42.8579 21.3675C41.8928 20.9595 41.0908 20.6308 40.683 20.4834L40.6966 20.4607C38.7392 19.2139 35.7351 17.2869 35.5312 17.1169C35.137 16.7768 26.1111 12.9343 26.0295 12.8889C25.8936 12.8436 25.7305 12.7869 25.5266 12.7189L20.7962 9.68113ZM18.1319 11.6308C20.0485 12.0048 24.6838 12.9229 25.7441 13.365C27.4296 14.0791 34.6748 17.2076 35.0826 17.4796C35.3001 17.661 37.5837 19.1345 39.079 20.0867C36.5099 19.5653 31.6299 18.7151 30.5561 18.7265L21.5846 15.6093L21.4214 15.5753C20.9865 15.0539 19.1106 12.7529 18.1319 11.6308ZM6.29223 17.899L10.9547 14.2718L21.4079 16.1081L29.8492 19.0438L23.7867 22.6597L13.1296 22.229L6.29223 17.899ZM7.89623 27.6471L13.1432 22.7617L23.7459 23.1811L28.3132 26.8423C26.0295 28.8146 24.3032 31.195 23.2565 33.802C23.2429 33.8134 23.2293 33.836 23.2293 33.8587L23.2022 33.8927L13.3199 34.2328L7.89623 27.6471ZM7.59718 41.1471L13.3199 34.7542L23.0119 34.4255C22.3186 36.3978 22.0196 38.4154 22.1419 40.4557C22.1419 40.4784 22.1419 40.501 22.1419 40.5237C22.1419 40.6257 22.1555 40.7277 22.1691 40.8297C22.1691 40.8978 22.1691 40.9658 22.1827 41.0338C22.1827 41.1018 22.1963 41.1698 22.1963 41.2378C22.2099 41.3398 22.2234 41.4418 22.237 41.5438C22.237 41.5665 22.237 41.5892 22.2506 41.6119V41.6912H22.2642C22.3866 42.6547 22.6177 43.6295 22.9439 44.593C23.3109 45.6811 23.7867 46.7126 24.3712 47.6988L23.7731 48.4355L12.9937 48.7983L7.59718 41.1471ZM21.0544 63.5111C20.2932 63.7265 19.532 63.9418 18.7708 64.1685C17.9688 64.3952 17.1668 64.6333 16.3784 64.8713C15.5764 65.1093 14.7744 65.336 13.986 65.5854L11.6751 66.2882L7.27094 58.331L13.1024 49.3197L23.7595 48.9683L27.8918 55.9847L21.0544 63.5111ZM28.4355 55.7126L24.3168 48.7189L24.6974 48.2428C26.0703 50.4078 27.9326 52.2781 30.1347 53.7743L30.1483 53.797L30.2298 53.8423C30.8415 54.2617 31.4804 54.6471 32.1465 54.9985C30.5017 55.3386 28.9929 55.6106 28.4355 55.7126ZM39.8266 57.5602L39.949 57.5829L39.9626 57.5716C41.2267 57.7643 42.5317 57.8776 43.8366 57.8776C45.5086 57.8776 47.2077 57.7076 48.8933 57.3675L45.563 61.5275L38.4537 62.4003L38.2906 57.2655C38.7935 57.3789 39.3101 57.4809 39.8266 57.5602ZM51.5032 55.0665C51.5304 55.0552 51.5575 55.0438 51.5847 55.0325C51.9789 55.1459 52.3595 55.2365 52.7673 55.2819C52.1285 55.5426 51.4488 55.7806 50.7556 55.9847L51.5032 55.0665Z" fill="#FF4E27"/>
</g>
</g>
</g>
</svg>
