<svg width="1396" height="945" viewBox="0 0 1396 945" fill="none" xmlns="http://www.w3.org/2000/svg">
<path d="M599.333 818.869L597.399 824.523L601.422 828.942L607.38 827.706L609.321 822.05L605.291 817.633L599.333 818.869ZM580.656 736.07L577.784 744.464L583.757 751.024L592.611 749.188L595.476 740.795L589.51 734.234L580.656 736.07ZM559.018 805.751L556.916 811.892L561.285 816.684L567.757 815.342L569.853 809.209L565.489 804.408L559.018 805.751ZM573.795 541.638L568.511 557.087L579.501 569.153L595.777 565.777L601.063 550.336L590.071 538.263L573.795 541.638ZM571.268 694.607L567.906 704.446L574.902 712.129L585.262 709.981L588.633 700.147L581.628 692.458L571.268 694.607ZM564.261 500.029L558.419 517.12L570.573 530.464L588.585 526.729L594.429 509.652L582.273 496.293L564.261 500.029ZM549.339 514.789L555.541 496.676L542.649 482.53L523.561 486.488L517.364 504.593L530.25 518.747L549.339 514.789ZM549.605 764.271L547.002 771.874L552.415 777.822L560.435 776.158L563.036 768.549L557.625 762.608L549.605 764.271ZM561.883 653.157L558.021 664.429L566.047 673.235L577.921 670.773L581.783 659.501L573.757 650.695L561.883 653.157ZM583.37 583.303L578.666 597.047L588.447 607.787L602.932 604.784L607.636 591.04L597.854 580.3L583.37 583.303ZM661.483 762.513L659.03 769.682L664.13 775.277L671.685 773.711L674.139 766.549L669.038 760.947L661.483 762.513ZM533.114 528.122L527.485 544.561L539.188 557.412L556.513 553.82L562.141 537.374L550.439 524.53L533.114 528.122ZM542.812 569.924L537.828 584.483L548.191 595.866L563.537 592.683L568.519 578.118L558.157 566.742L542.812 569.924ZM589.968 777.443L587.55 784.506L592.575 790.017L600.019 788.474L602.438 781.418L597.411 775.9L589.968 777.443ZM614.495 555.179L609.55 569.609L619.826 580.883L635.033 577.729L639.971 563.301L629.702 552.025L614.495 555.179ZM624.071 596.851L619.72 609.567L628.769 619.504L642.178 616.724L646.53 604.007L637.48 594.07L624.071 596.851ZM592.907 624.927L588.773 637.018L597.374 646.469L610.123 643.825L614.257 631.733L605.656 622.283L592.907 624.927ZM398.961 598.865L393.647 614.383L404.693 626.508L421.046 623.117L426.359 607.599L415.313 595.474L398.961 598.865ZM642.852 679.762L639.489 689.601L646.485 697.284L656.853 695.135L660.216 685.302L653.219 677.612L642.852 679.762ZM652.171 721.14L649.263 729.641L655.31 736.277L664.268 734.419L667.178 725.926L661.129 719.283L652.171 721.14ZM633.503 638.347L629.66 649.572L637.65 658.344L649.475 655.892L653.318 644.666L645.328 635.895L633.503 638.347ZM602.374 666.458L598.755 677.015L606.272 685.255L617.389 682.95L620.996 672.403L613.491 664.153L602.374 666.458ZM604.84 513.439L599.284 529.671L610.837 542.356L627.953 538.806L633.509 522.574L621.956 509.889L604.84 513.439ZM611.754 707.916L608.638 717.025L615.121 724.151L624.724 722.159L627.845 713.042L621.357 705.925L611.754 707.916ZM620.761 499.758L626.874 481.883L614.158 467.92L595.313 471.828L589.19 489.698L601.915 503.666L620.761 499.758ZM621.072 749.288L618.405 757.066L623.947 763.15L632.148 761.449L634.806 753.665L629.273 747.587L621.072 749.288ZM630.423 790.709L628.236 797.102L632.783 802.09L639.519 800.694L641.7 794.309L637.158 789.312L630.423 790.709ZM552.374 611.564L547.963 624.448L557.134 634.516L570.709 631.701L575.113 618.818L565.949 608.748L552.374 611.564ZM445.976 557.053L452.103 539.167L439.368 525.187L420.516 529.096L414.398 546.987L427.124 560.962L445.976 557.053ZM430.134 570.795L424.608 586.929L436.093 599.529L453.098 596.002L458.611 579.877L447.139 567.268L430.134 570.795ZM487.915 821.132L486.055 826.587L489.929 830.846L495.679 829.653L497.54 824.205L493.664 819.94L487.915 821.132ZM468.654 737.684L465.576 746.693L471.984 753.742L481.483 751.772L484.567 742.755L478.153 735.714L468.654 737.684ZM540.171 722.761L537.048 731.871L543.537 738.996L553.141 737.004L556.262 727.887L549.774 720.77L540.171 722.761ZM459.118 696.068L455.463 706.731L463.057 715.061L474.292 712.731L477.947 702.068L470.353 693.738L459.118 696.068ZM439.831 612.597L434.951 626.851L445.097 637.989L460.116 634.874L465.003 620.619L454.85 609.482L439.831 612.597ZM418.41 682.522L414.41 694.211L422.728 703.346L435.046 700.791L439.053 689.1L430.728 679.967L418.41 682.522ZM408.666 640.673L403.997 654.303L413.7 664.947L428.067 661.967L432.724 648.346L423.033 637.693L408.666 640.673ZM447.653 808.066L445.64 813.935L449.82 818.512L455.993 817.232L458 811.372L453.826 806.786L447.653 808.066ZM428.021 724.222L424.621 734.16L431.691 741.92L442.162 739.749L445.563 729.817L438.492 722.05L428.021 724.222ZM458.175 850.772L457.204 853.596L459.22 855.808L462.199 855.191L463.169 852.359L461.154 850.154L458.175 850.772ZM437.772 766.076L435.04 774.066L440.723 780.304L449.146 778.558L451.879 770.574L446.195 764.329L437.772 766.076ZM449.516 654.373L445.28 666.776L454.097 676.464L467.165 673.754L471.409 661.357L462.584 651.663L449.516 654.373ZM518.648 792.58L516.363 799.268L521.117 804.49L528.165 803.028L530.452 796.347L525.696 791.118L518.648 792.58ZM502.035 556.294L496.663 571.986L507.832 584.248L524.372 580.818L529.737 565.127L518.575 552.864L502.035 556.294ZM492.425 514.601L486.461 532.042L498.866 545.66L517.239 541.85L523.214 524.42L510.798 510.791L492.425 514.601ZM511.646 597.994L506.874 611.935L516.795 622.823L531.481 619.778L536.254 605.843L526.332 594.948L511.646 597.994ZM530.737 681.251L527.095 691.876L534.661 700.176L545.848 697.857L549.489 687.232L541.923 678.931L530.737 681.251ZM521.248 639.688L517.072 651.888L525.754 661.413L538.607 658.748L542.778 646.557L534.101 637.023L521.248 639.688ZM490.151 667.842L486.222 679.319L494.39 688.286L506.486 685.778L510.408 674.303L502.247 665.334L490.151 667.842ZM470.958 584.479L465.856 599.408L476.474 611.078L492.216 607.813L497.325 592.882L486.7 581.214L470.958 584.479ZM480.622 626.224L476.129 639.345L485.469 649.597L499.287 646.731L503.779 633.611L494.44 623.359L480.622 626.224ZM528.183 834.196L526.454 839.235L530.046 843.178L535.358 842.076L537.085 837.031L533.495 833.095L528.183 834.196ZM461.308 542.731L455.575 559.474L467.495 572.563L485.146 568.902L490.877 552.153L478.959 539.07L461.308 542.731ZM478.244 779.353L475.738 786.653L480.94 792.354L488.627 790.76L491.126 783.462L485.931 777.759L478.244 779.353ZM509.145 750.985L506.304 759.288L512.21 765.762L520.945 763.951L523.782 755.663L517.881 749.173L509.145 750.985ZM499.678 709.453L496.315 719.292L503.312 726.976L513.679 724.826L517.043 714.994L510.045 707.303L499.678 709.453ZM670.765 803.85L668.753 809.725L672.935 814.316L679.129 813.032L681.134 807.158L676.959 802.566L670.765 803.85ZM817.281 622.082L813.742 632.431L821.103 640.513L832.005 638.252L835.545 627.909L828.182 619.821L817.281 622.082ZM807.88 580.628L803.843 592.417L812.236 601.635L824.666 599.057L828.709 587.26L820.309 578.051L807.88 580.628ZM835.944 704.883L833.336 712.494L838.758 718.454L846.792 716.788L849.397 709.163L843.978 703.217L835.944 704.883ZM798.353 539.017L793.764 552.44L803.312 562.932L817.464 559.997L822.06 546.572L812.504 536.083L798.353 539.017ZM845.197 746.184L843.014 752.561L847.551 757.538L854.273 756.144L856.45 749.775L851.918 744.79L845.197 746.184ZM826.585 663.456L823.507 672.466L829.915 679.515L839.414 677.545L842.498 668.527L836.084 661.487L826.585 663.456ZM804.657 732.822L802.203 739.991L807.304 745.586L814.852 744.021L817.306 736.859L812.205 731.257L804.657 732.822ZM795.414 691.534L792.541 699.928L798.515 706.487L807.368 704.651L810.241 696.257L804.267 689.698L795.414 691.534ZM635.917 485.254L630.1 502.255L642.196 515.533L660.104 511.82L665.929 494.824L653.825 481.54L635.917 485.254ZM776.714 608.698L772.889 619.87L780.84 628.593L792.61 626.152L796.429 614.988L788.484 606.257L776.714 608.698ZM779.267 455.752L773.53 472.51L785.455 485.591L803.106 481.931L808.839 465.188L796.918 452.091L779.267 455.752ZM788.777 497.346L783.594 512.483L794.369 524.311L810.318 521.003L815.501 505.866L804.726 494.038L788.777 497.346ZM810.366 427.605L804.385 445.071L816.819 458.718L835.22 454.902L841.201 437.436L828.767 423.789L810.366 427.605ZM813.949 774.171L811.941 780.031L816.113 784.61L822.293 783.328L824.301 777.468L820.129 772.889L813.949 774.171ZM851.068 441.152L845.44 457.597L857.141 470.435L874.466 466.842L880.096 450.41L868.393 437.559L851.068 441.152ZM860.726 482.905L855.719 497.525L866.129 508.955L881.544 505.758L886.543 491.133L876.142 479.709L860.726 482.905ZM889.127 607.529L885.714 617.505L892.813 625.302L903.333 623.12L906.747 613.144L899.647 605.347L889.127 607.529ZM867.293 427.818L873.496 409.712L860.601 395.553L841.513 399.511L835.319 417.629L848.204 431.777L867.293 427.818ZM879.695 566.025L875.767 577.502L883.933 586.463L896.029 583.954L899.959 572.485L891.791 563.517L879.695 566.025ZM870.3 524.564L865.882 537.485L875.074 547.583L888.69 544.76L893.122 531.836L883.916 521.74L870.3 524.564ZM876.389 718.137L874.009 725.1L878.96 730.535L886.3 729.013L888.674 722.059L883.729 716.615L876.389 718.137ZM848.522 594.096L844.806 604.956L852.532 613.435L863.976 611.062L867.7 600.208L859.965 591.723L848.522 594.096ZM839.081 552.587L834.852 564.953L843.649 574.617L856.69 571.913L860.919 559.547L852.121 549.883L839.081 552.587ZM829.485 510.891L824.648 525.002L834.699 536.033L849.566 532.95L854.395 518.833L844.352 507.808L829.485 510.891ZM867.153 676.847L864.347 685.037L870.178 691.435L878.809 689.645L881.609 681.457L875.784 675.058L867.153 676.847ZM885.674 759.487L883.747 765.14L887.763 769.56L893.735 768.322L895.669 762.668L891.646 758.249L885.674 759.487ZM819.95 469.275L814.555 485.029L825.769 497.338L842.372 493.895L847.76 478.143L836.552 465.832L819.95 469.275ZM857.833 635.469L854.573 644.997L861.352 652.436L871.393 650.354L874.654 640.832L867.874 633.387L857.833 635.469ZM786.108 650.153L782.774 659.886L789.702 667.485L799.951 665.36L803.279 655.634L796.357 648.027L786.108 650.153ZM692.27 484.837L698.354 467.06L685.703 453.167L666.968 457.053L660.892 474.828L673.536 488.722L692.27 484.837ZM676.485 498.645L670.95 514.809L682.456 527.44L699.489 523.908L705.016 507.745L693.518 495.112L676.485 498.645ZM686.087 540.339L681.154 554.76L691.413 566.023L706.606 562.872L711.547 548.457L701.28 537.189L686.087 540.339ZM705.086 623.502L701.243 634.728L709.233 643.499L721.065 641.045L724.908 629.82L716.918 621.048L705.086 623.502ZM692.636 734.419L689.961 742.227L695.522 748.335L703.751 746.628L706.425 738.813L700.865 732.712L692.636 734.419ZM695.67 582.009L691.317 594.719L700.365 604.65L713.76 601.872L718.106 589.164L709.065 579.232L695.67 582.009ZM683.298 693.023L680.159 702.193L686.688 709.366L696.36 707.36L699.498 698.183L692.971 691.017L683.298 693.023ZM701.893 775.739L699.653 782.291L704.313 787.405L711.222 785.972L713.464 779.427L708.802 774.306L701.893 775.739ZM655.028 568.542L650.361 582.179L660.067 592.836L674.447 589.854L679.108 576.218L669.409 565.56L655.028 568.542ZM645.454 526.877L640.205 542.219L651.122 554.208L667.287 550.856L672.542 535.512L661.619 523.525L645.454 526.877ZM767.319 567.236L763.005 579.853L771.979 589.707L785.276 586.949L789.592 574.339L780.616 564.478L767.319 567.236ZM673.951 651.615L670.345 662.168L677.849 670.412L688.973 668.105L692.586 657.556L685.075 649.308L673.951 651.615ZM664.517 610.104L660.391 622.166L668.973 631.592L681.687 628.956L685.806 616.896L677.231 607.468L664.517 610.104ZM714.442 664.916L711.08 674.754L718.076 682.438L728.443 680.288L731.807 670.456L724.809 662.766L714.442 664.916ZM764.22 719.574L761.544 727.382L767.106 733.49L775.341 731.782L778.015 723.967L772.455 717.866L764.22 719.574ZM773.484 760.893L771.243 767.445L775.903 772.559L782.805 771.127L785.047 764.582L780.386 759.462L773.484 760.893ZM763.785 469.907L769.833 452.236L757.257 438.427L738.634 442.29L732.58 459.962L745.162 473.769L763.785 469.907ZM757.746 525.578L752.842 539.893L763.034 551.079L778.123 547.949L783.02 533.635L772.835 522.449L757.746 525.578ZM748.094 483.823L742.568 499.957L754.055 512.564L771.053 509.038L776.572 492.905L765.093 480.298L748.094 483.823ZM754.928 678.225L751.812 687.334L758.295 694.459L767.905 692.466L771.019 683.351L764.538 676.232L754.928 678.225ZM745.541 636.768L741.936 647.322L749.439 655.565L760.556 653.26L764.17 642.711L756.658 634.463L745.541 636.768ZM707.52 470.433L701.718 487.402L713.786 500.652L731.667 496.944L737.478 479.986L725.4 466.725L707.52 470.433ZM733.047 747.644L730.585 754.843L735.705 760.463L743.288 758.89L745.751 751.698L740.629 746.072L733.047 747.644ZM742.284 788.941L740.24 794.901L744.487 799.563L750.771 798.26L752.815 792.293L748.569 787.638L742.284 788.941ZM726.627 553.701L721.958 567.331L731.663 577.981L746.029 575.002L750.684 561.374L740.994 550.721L726.627 553.701ZM736.107 595.258L731.975 607.321L740.563 616.746L753.277 614.109L757.396 602.049L748.821 592.621L736.107 595.258ZM723.755 706.295L720.846 714.796L726.894 721.432L735.851 719.574L738.768 711.079L732.712 704.438L723.755 706.295ZM717.083 512.079L711.858 527.359L722.729 539.302L738.831 535.962L744.063 520.681L733.186 508.74L717.083 512.079ZM711.07 816.949L710.463 818.701L718.024 817.133L716.777 815.766L711.07 816.949ZM1215.59 124.957L1222.06 106.06L1208.6 91.2882L1188.68 95.4196L1182.22 114.322L1195.66 129.089L1215.59 124.957ZM1166.05 164.032L1159.89 182.052L1172.71 196.129L1191.71 192.189L1197.88 174.174L1185.05 160.093L1166.05 164.032ZM1065.82 303.158L1072.25 284.353L1058.87 269.665L1039.06 273.774L1032.62 292.572L1046.01 307.266L1065.82 303.158ZM1097.5 275.654L1103.97 256.749L1090.52 241.978L1070.59 246.109L1064.13 265.012L1077.58 279.785L1097.5 275.654ZM1129.07 248.016L1135.52 229.166L1122.11 214.442L1102.25 218.56L1095.8 237.403L1109.21 252.134L1129.07 248.016ZM1160.51 220.23L1166.87 201.632L1153.64 187.11L1134.04 191.175L1127.67 209.76L1140.91 224.295L1160.51 220.23ZM1221.31 68.9423L1215.32 86.4235L1227.76 100.076L1246.18 96.2572L1252.17 78.7829L1239.72 65.1235L1221.31 68.9423ZM1210.74 -160.693L1204.59 -142.718L1217.38 -128.664L1228.5 -130.971L1221.86 -163L1210.74 -160.693ZM1205.23 46.4498L1218.84 61.388L1238.99 57.2091L1245.53 38.092L1231.92 23.1538L1211.77 27.3327L1205.23 46.4498ZM1209.81 -101.728L1224.73 -85.3561L1237.42 -87.9884L1229.68 -125.318L1216.98 -122.685L1209.81 -101.728ZM1219.69 -61.708L1233.58 -46.4484L1245.52 -48.9237L1238.3 -83.7179L1226.37 -81.2426L1219.69 -61.708ZM1239.23 18.3651L1251.22 31.531L1261.75 29.348L1255.53 -0.667365L1245 1.51567L1239.23 18.3651ZM1229.46 -21.6763L1242.41 -7.46958L1253.63 -9.79805L1246.92 -42.1927L1235.69 -39.8642L1229.46 -21.6763ZM510.196 502.962L516.794 483.685L503.073 468.615L482.749 472.83L476.152 492.113L489.872 507.177L510.196 502.962ZM585.579 429.991L578.806 449.785L592.892 465.253L613.758 460.925L620.531 441.132L606.445 425.664L585.579 429.991ZM581.46 487.766L587.905 468.938L574.504 454.219L554.658 458.334L548.215 477.169L561.615 491.881L581.46 487.766ZM513.773 444.599L506.896 464.697L521.199 480.41L542.392 476.015L549.274 455.909L534.965 440.204L513.773 444.599ZM657.299 415.28L650.577 434.901L664.547 450.23L685.218 445.943L691.934 426.324L677.971 410.993L657.299 415.28ZM652.976 472.836L659.385 454.115L646.057 439.472L626.315 443.566L619.909 462.301L633.234 476.93L652.976 472.836ZM1034.11 330.64L1040.5 311.978L1027.21 297.391L1007.54 301.471L1001.16 320.137L1014.44 334.719L1034.11 330.64ZM616.562 401.705L609.481 422.39L624.205 438.56L646.009 434.038L653.088 413.346L638.366 397.183L616.562 401.705ZM375.041 572.612L381.477 553.814L368.095 539.119L348.285 543.227L341.849 562.032L355.23 576.72L375.041 572.612ZM1002.25 357.955L1008.52 339.637L995.486 325.33L976.175 329.334L969.905 347.645L982.941 361.959L1002.25 357.955ZM478.067 529.986L484.423 511.424L471.21 496.921L451.643 500.978L445.294 519.539L458.5 534.044L478.067 529.986ZM407.019 545.42L413.631 526.105L399.884 511.012L379.524 515.234L372.919 534.548L386.66 549.642L407.019 545.42ZM1231.98 18.3695L1239.17 -2.6564L1224.21 -19.0887L1202.05 -14.4922L1194.86 6.53369L1209.82 22.966L1231.98 18.3695ZM410.724 487.187L403.916 507.094L418.076 522.638L439.046 518.289L445.856 498.396L431.694 482.838L410.724 487.187ZM471.092 491.183L478.121 470.664L463.514 454.64L441.898 459.123L434.875 479.633L449.476 495.666L471.092 491.183ZM926.185 772.813L925.768 774.051L932.24 772.709L931.358 771.74L926.185 772.813ZM854.359 787.397L853.824 788.971L861.018 787.479L859.893 786.249L854.359 787.397ZM639.602 831.933L639.06 833.509L646.253 832.017L645.129 830.787L639.602 831.933ZM782.646 802.106L782.053 803.855L789.608 802.288L788.361 800.921L782.646 802.106ZM998.066 758.288L997.789 759.116L1003.39 757.954L1002.81 757.304L998.066 758.288ZM898.4 648.853L895.41 657.555L901.615 664.356L910.787 662.454L913.762 653.749L907.572 646.951L898.4 648.853ZM1364.03 537.133L1363.22 539.514L1364.91 541.37L1367.41 540.85L1367.67 540.09L1367.07 537.209L1366.54 536.613L1364.03 537.133ZM84.2159 804.753L79.4515 799.52L74.2714 800.594L76.7455 812.524L81.9255 811.45L84.2159 804.753ZM1208.58 86.1311L1215.72 65.3084L1200.89 49.039L1178.95 53.5894L1171.82 74.4106L1186.64 90.6815L1208.58 86.1311ZM568.376 847.177L568.018 848.242L574.128 846.974L573.369 846.142L568.376 847.177ZM1390.66 659.812L1390.59 660.032L1390.74 660.205L1390.97 660.158L1391.05 659.937L1390.89 659.765L1390.66 659.812ZM1372.98 578.115L1372.45 579.666L1373.55 580.881L1375.2 580.539L1375.73 578.987L1374.62 577.774L1372.98 578.115ZM1070.06 743.894L1069.98 744.146L1074.38 743.233L1074.2 743.036L1070.06 743.894ZM69.8293 767.02L70.3246 765.567L69.2937 764.438L67.7661 764.754L67.2693 766.201L68.3017 767.337L69.8293 767.02ZM96.9543 909.972L104.104 944.448L116.561 941.865L123.049 922.893L109.009 907.472L96.9543 909.972ZM275.673 556.956L268.745 577.192L283.147 592.998L304.479 588.574L311.408 568.345L297.004 552.532L275.673 556.956ZM688.202 386.919L681.134 407.53L695.816 423.638L717.543 419.132L724.595 398.517L709.929 382.413L688.202 386.919ZM892.397 361.93L899.488 341.222L884.745 325.028L862.906 329.556L855.819 350.278L870.559 366.459L892.397 361.93ZM1156.28 122.154L1149.44 142.152L1163.67 157.782L1184.75 153.41L1191.61 133.409L1177.36 117.782L1156.28 122.154ZM389.276 557.089L383.339 574.454L395.692 588.026L413.996 584.23L419.94 566.864L407.58 553.293L389.276 557.089ZM307.136 529.2L300.142 549.641L314.687 565.614L336.241 561.145L343.228 540.705L328.689 524.73L307.136 529.2ZM113.069 845.644L107.086 863.104L119.52 876.751L137.928 872.933L143.909 855.467L131.477 841.827L113.069 845.644ZM131.46 834.69L138.357 814.552L124.022 798.824L102.802 803.225L95.9167 823.353L110.239 839.09L131.46 834.69ZM124.527 889.372L120.041 902.491L129.373 912.737L143.198 909.87L147.685 896.758L138.352 886.505L124.527 889.372ZM212.405 612.073L205.448 632.378L219.906 648.243L241.307 643.805L248.256 623.501L233.806 607.635L212.405 612.073ZM244.065 584.537L237.138 604.773L251.541 620.585L272.865 616.163L279.786 595.929L265.39 580.115L244.065 584.537ZM154.831 766.905L161.788 746.6L147.33 730.735L125.93 735.173L118.973 755.479L133.431 771.343L154.831 766.905ZM209.911 671.639L216.97 651.022L202.295 634.913L180.567 639.419L173.516 660.034L188.184 676.145L209.911 671.639ZM1153.51 181.397L1160.53 160.879L1145.93 144.861L1124.31 149.344L1117.29 169.847L1131.89 185.88L1153.51 181.397ZM295.363 640.867L289.86 656.94L301.299 669.492L318.242 665.979L323.746 649.913L312.306 637.353L295.363 640.867ZM305.71 839.114L304.3 843.246L307.235 846.469L311.589 845.566L313 841.442L310.064 838.212L305.71 839.114ZM294.458 795.613L291.651 803.802L297.483 810.2L306.107 808.412L308.92 800.221L303.082 793.824L294.458 795.613ZM347.582 853.939L347.082 855.407L348.121 856.542L349.663 856.222L350.165 854.768L349.123 853.619L347.582 853.939ZM325.338 767.214L322.18 776.431L328.744 783.638L338.452 781.625L341.608 772.402L335.046 765.201L325.338 767.214ZM315.212 724.949L311.206 736.647L319.532 745.78L331.85 743.225L335.857 731.535L327.53 722.395L315.212 724.949ZM305.198 682.81L300.405 696.82L310.373 707.762L325.135 704.7L329.93 690.697L319.961 679.748L305.198 682.81ZM252.725 780.936L249.076 791.591L256.661 799.916L267.889 797.588L271.532 786.934L263.953 778.608L252.725 780.936ZM284.003 752.985L280.197 764.111L288.112 772.799L299.833 770.368L303.646 759.248L295.724 750.554L284.003 752.985ZM275.83 868.6L275.249 870.304L276.457 871.623L278.241 871.253L278.825 869.562L277.614 868.23L275.83 868.6ZM273.802 710.644L269.118 724.341L278.863 735.047L293.306 732.051L297.99 718.354L288.245 707.649L273.802 710.644ZM263.907 668.621L258.483 684.48L269.765 696.867L286.472 693.403L291.897 677.551L280.614 665.157L263.907 668.621ZM263.622 824.052L261.196 831.144L266.242 836.687L273.721 835.136L276.146 828.044L271.1 822.501L263.622 824.052ZM335.935 810.003L333.849 816.078L338.18 820.828L344.582 819.501L346.667 813.419L342.338 808.675L335.935 810.003ZM387.32 710.681L383.56 721.642L391.369 730.203L402.916 727.809L406.669 716.85L398.868 708.287L387.32 710.681ZM377.569 668.827L373.148 681.734L382.337 691.82L395.94 688.999L400.368 676.09L391.172 666.006L377.569 668.827ZM397.146 752.612L394.09 761.518L400.437 768.481L409.825 766.534L412.873 757.623L406.534 750.665L397.146 752.612ZM407.113 794.705L404.835 801.356L409.572 806.56L416.585 805.106L418.855 798.449L414.127 793.25L407.113 794.705ZM367.761 626.913L362.652 641.844L373.276 653.505L389.018 650.241L394.121 635.318L383.503 623.649L367.761 626.913ZM417.833 837.631L416.694 840.971L419.066 843.576L422.587 842.846L423.735 839.511L421.354 836.901L417.833 837.631ZM242.338 738.393L237.72 751.886L247.323 762.43L261.551 759.479L266.169 745.986L256.566 735.443L242.338 738.393ZM336.561 654.954L331.643 669.308L341.863 680.523L357 677.384L361.911 663.031L351.698 651.815L336.561 654.954ZM358.026 585.069L352.253 601.934L364.257 615.112L382.026 611.427L387.799 594.562L375.796 581.384L358.026 585.069ZM326.686 612.963L321.057 629.437L332.772 642.307L350.138 638.706L355.776 622.237L344.053 609.361L326.686 612.963ZM346.394 696.891L342.188 709.188L350.936 718.792L363.893 716.105L368.102 703.814L359.351 694.204L346.394 696.891ZM366.406 781.166L363.776 788.845L369.243 794.845L377.339 793.166L379.962 785.488L374.503 779.487L366.406 781.166ZM356.221 738.829L352.711 749.073L360.005 757.076L370.796 754.839L374.299 744.596L367.012 736.591L356.221 738.829ZM377.01 823.954L375.466 828.487L378.685 832.027L383.462 831.036L385.007 826.509L381.788 822.963L377.01 823.954ZM279.654 654.765L285.824 636.743L272.996 622.662L253.998 626.602L247.835 644.622L260.656 658.705L279.654 654.765ZM935.079 315.353L928.27 335.253L942.43 350.798L963.4 346.449L970.21 326.555L956.049 311.004L935.079 315.353ZM966.394 287.444L959.444 307.748L973.896 323.621L995.304 319.181L1002.25 298.87L987.802 283.004L966.394 287.444ZM724.541 457.974L730.94 439.275L717.632 424.657L697.925 428.744L691.527 447.449L704.835 462.06L724.541 457.974ZM343.143 599.878L349.432 581.486L336.35 567.117L316.963 571.138L310.665 589.525L323.756 603.898L343.143 599.878ZM931.448 373.663L938.089 354.243L924.275 339.072L903.811 343.316L897.162 362.73L910.985 377.907L931.448 373.663ZM311.36 627.276L317.569 609.127L304.654 594.936L285.517 598.905L279.309 617.061L292.223 631.245L311.36 627.276ZM788.985 404.126L795.964 383.717L781.446 367.773L759.927 372.235L752.94 392.639L767.466 408.589L788.985 404.126ZM248.106 682.425L254.308 664.313L241.415 650.16L222.327 654.118L216.131 672.23L229.018 686.384L248.106 682.425ZM728.949 400.513L722.271 420.033L736.161 435.287L756.735 431.02L763.413 411.501L749.524 396.246L728.949 400.513ZM831.714 357.603L824.822 377.732L839.152 393.468L860.372 389.067L867.262 368.931L852.934 353.202L831.714 357.603ZM899.346 400.71L905.754 381.982L892.428 367.353L872.687 371.447L866.278 390.169L879.605 404.804L899.346 400.71ZM795.981 442.96L802.308 424.475L789.149 410.017L769.658 414.059L763.333 432.558L776.49 447.003L795.981 442.96ZM828.176 416.014L834.781 396.7L821.041 381.606L800.689 385.827L794.077 405.142L807.824 420.235L828.176 416.014ZM178.753 793.166L173.958 807.169L183.928 818.124L198.691 815.063L203.483 801.046L193.515 790.104L178.753 793.166ZM216.691 710.235L222.987 691.841L209.896 677.468L190.516 681.487L184.22 699.881L197.311 714.254L216.691 710.235ZM202.15 881.158L200.568 885.791L203.86 889.407L208.742 888.395L210.324 883.768L207.031 880.145L202.15 881.158ZM189.648 836.275L186.072 846.724L193.508 854.889L204.521 852.605L208.097 842.156L200.661 833.991L189.648 836.275ZM221.329 808.77L217.79 819.119L225.152 827.201L236.06 824.939L239.601 814.596L232.238 806.508L221.329 808.77ZM232.835 852.552L230.807 858.487L235.026 863.119L241.283 861.822L243.312 855.893L239.091 851.254L232.835 852.552ZM210.696 765.946L206.065 779.484L215.696 790.057L229.966 787.098L234.597 773.567L224.965 762.987L210.696 765.946ZM200.491 723.585L194.965 739.719L206.45 752.319L223.449 748.794L228.969 732.668L217.49 720.06L200.491 723.585ZM135.944 777.319L129.795 795.301L142.587 809.348L161.543 805.417L167.694 787.442L154.901 773.388L135.944 777.319ZM158.341 708.464L151.78 727.642L165.426 742.628L185.639 738.436L192.207 719.258L178.554 704.273L158.341 708.464ZM232.295 696.217L226.87 712.069L238.152 724.457L254.865 720.991L260.291 705.139L249.009 692.751L232.295 696.217ZM146.408 819.952L141.263 834.99L151.962 846.734L167.808 843.448L172.961 828.416L162.254 816.666L146.408 819.952ZM168.484 750.74L162.769 767.429L174.648 780.464L192.237 776.816L197.946 760.134L186.073 747.092L168.484 750.74ZM157.677 863.465L153.918 874.432L161.725 882.987L173.273 880.592L177.027 869.64L169.224 861.07L157.677 863.465ZM171.714 910.023L170.683 913.015L172.819 915.351L175.964 914.698L176.988 911.708L174.859 909.371L171.714 910.023ZM1381.85 618.992L1381.56 619.845L1382.17 620.503L1383.05 620.319L1383.34 619.475L1382.74 618.807L1381.85 618.992ZM1107.63 162.158L1111.79 149.96L1103.12 140.426L1090.25 143.094L1086.07 155.294L1094.76 164.826L1107.63 162.158ZM1124.76 87.529L1126 83.9146L1123.43 81.0894L1119.61 81.8814L1118.37 85.4957L1120.94 88.321L1124.76 87.529ZM1159.07 62.9021L1161.59 55.4987L1156.33 49.7111L1148.53 51.3296L1145.99 58.7344L1151.26 64.5206L1159.07 62.9021ZM1091.91 113.756L1092.54 111.886L1091.22 110.414L1089.24 110.825L1088.6 112.703L1089.93 114.167L1091.91 113.756ZM1140.96 136.461L1145.96 121.842L1135.55 110.411L1120.13 113.609L1115.13 128.234L1125.53 139.659L1140.96 136.461ZM1122.19 209.307L1129.35 188.386L1114.46 172.038L1092.41 176.612L1085.25 197.532L1100.14 213.88L1122.19 209.307ZM1145.52 16.8723L1145.55 16.7591L1145.47 16.6689L1145.34 16.6963L1145.31 16.8095L1145.38 16.8997L1145.52 16.8723ZM1219 -27.0349L1223.97 -41.5703L1213.63 -52.9222L1198.31 -49.7455L1193.33 -35.217L1203.68 -23.8583L1219 -27.0349ZM1175.83 112.466L1182.41 93.2491L1168.73 78.241L1148.48 82.4401L1141.91 101.647L1155.58 116.665L1175.83 112.466ZM1193.28 -117.564L1193.93 -119.474L1192.57 -120.96L1190.57 -120.545L1189.92 -118.642L1191.28 -117.149L1193.28 -117.564ZM1195.53 40.6418L1200.39 26.419L1190.28 15.3037L1175.28 18.4141L1170.41 32.6369L1180.53 43.7522L1195.53 40.6418ZM1180.61 -6.89266L1182.32 -11.8987L1178.76 -15.82L1173.47 -14.7242L1171.76 -9.7099L1175.33 -5.79683L1180.61 -6.89266ZM1205.27 -73.2678L1207.66 -80.2537L1202.68 -85.7132L1195.32 -84.1854L1192.92 -77.1981L1197.9 -71.74L1205.27 -73.2678ZM907.095 284.625L910.077 275.919L903.88 269.123L894.708 271.025L891.725 279.724L897.923 286.527L907.095 284.625ZM966.499 225.262L967.646 221.92L965.263 219.303L961.75 220.032L960.605 223.38L962.985 225.99L966.499 225.262ZM1013.36 245.563L1017.81 232.543L1008.55 222.374L994.844 225.217L990.38 238.232L999.653 248.406L1013.36 245.563ZM997.219 196.684L997.924 194.601L996.45 192.976L994.256 193.431L993.543 195.509L995.025 197.139L997.219 196.684ZM954.699 305.748L961.353 286.325L947.521 271.137L927.051 275.382L920.406 294.817L934.228 309.993L954.699 305.748ZM983.622 275.21L988.979 259.556L977.84 247.33L961.348 250.75L955.989 266.397L967.13 278.63L983.622 275.21ZM936.477 254.586L938.378 249.016L934.422 244.675L928.554 245.892L926.643 251.45L930.609 255.803L936.477 254.586ZM1058.96 264.485L1066.12 243.557L1051.24 227.217L1029.19 231.789L1022.02 252.704L1036.92 269.057L1058.96 264.485ZM1075.49 189.184L1079.42 177.701L1071.25 168.74L1059.16 171.247L1055.22 182.718L1063.4 191.691L1075.49 189.184ZM1059.85 140.852L1060.28 139.61L1059.39 138.635L1058.07 138.908L1057.65 140.156L1058.53 141.124L1059.85 140.852ZM1043.88 216.765L1047.8 205.297L1039.64 196.328L1027.54 198.838L1023.62 210.312L1031.78 219.275L1043.88 216.765ZM1090.65 236.979L1097.84 215.947L1082.88 199.521L1060.73 204.116L1053.52 225.138L1068.49 241.574L1090.65 236.979ZM1027.13 291.83L1034.19 271.221L1019.52 255.11L997.791 259.616L990.732 280.233L1005.41 296.335L1027.13 291.83ZM1344.66 459.23L1347.58 462.448L1351.4 461.656L1349.88 454.321L1346.06 455.113L1344.66 459.23ZM1028.26 168.478L1028.71 167.191L1027.79 166.186L1026.43 166.467L1025.99 167.754L1026.91 168.758L1028.26 168.478ZM1268.2 276.183L1264.66 286.519L1272.02 294.607L1282.93 292.346L1286.47 281.997L1279.11 273.922L1268.2 276.183ZM1291.35 550.777L1290.01 554.696L1292.8 557.753L1296.92 556.897L1298.26 552.985L1295.47 549.922L1291.35 550.777ZM1305.06 441.246L1303.17 446.801L1307.12 451.143L1312.97 449.929L1314.87 444.373L1310.92 440.032L1305.06 441.246ZM1258.96 234.881L1255 246.456L1263.23 255.501L1275.43 252.971L1279.4 241.395L1271.16 232.351L1258.96 234.881ZM1295.9 400.033L1293.61 406.715L1298.37 411.936L1305.41 410.476L1307.7 403.793L1302.94 398.573L1295.9 400.033ZM1286.76 358.844L1284.09 366.63L1289.63 372.7L1297.83 370.999L1300.49 363.228L1294.96 357.144L1286.76 358.844ZM1318.34 673.861L1317.91 675.103L1318.8 676.078L1320.11 675.807L1320.54 674.559L1319.65 673.59L1318.34 673.861ZM1300.42 591.883L1299.41 594.814L1301.5 597.102L1304.58 596.463L1305.59 593.532L1303.5 591.244L1300.42 591.883ZM1314.15 482.369L1312.6 486.911L1315.83 490.463L1320.62 489.469L1322.17 484.927L1318.94 481.376L1314.15 482.369ZM1249.65 193.508L1245.23 206.416L1254.42 216.508L1268.03 213.685L1272.44 200.772L1263.26 190.686L1249.65 193.508ZM1240.21 151.999L1235.27 166.42L1245.53 177.683L1260.73 174.531L1265.67 160.116L1255.41 148.847L1240.21 151.999ZM1230.77 110.489L1225.32 126.417L1236.66 138.864L1253.45 135.382L1258.89 119.455L1247.56 107.007L1230.77 110.489ZM1353.98 499.363L1356.27 501.866L1359.6 501.175L1358.41 495.46L1355.08 496.151L1353.98 499.363ZM1309.39 632.881L1308.68 634.959L1310.16 636.575L1312.34 636.123L1313.05 634.052L1311.57 632.429L1309.39 632.881ZM1323.18 523.433L1321.95 527.039L1324.51 529.859L1328.32 529.07L1329.55 525.464L1326.98 522.644L1323.18 523.433ZM1287.59 218.671L1295.16 226.991L1302.43 225.485L1298.49 206.512L1291.23 208.018L1287.59 218.671ZM1297.25 258.734L1303.95 266.091L1310.56 264.719L1307.08 247.935L1300.46 249.308L1297.25 258.734ZM1316.32 338.905L1321.44 344.532L1326.88 343.404L1324.22 330.586L1318.79 331.713L1316.32 338.905ZM1335.31 419.102L1338.9 423.045L1343.21 422.15L1341.35 413.155L1337.03 414.05L1335.31 419.102ZM1325.87 378.992L1330.2 383.73L1335.04 382.726L1332.79 371.921L1327.95 372.925L1325.87 378.992ZM1306.8 298.814L1312.7 305.296L1318.72 304.048L1315.66 289.278L1309.64 290.526L1306.8 298.814ZM1350.09 646.428L1349.73 647.479L1350.48 648.292L1351.58 648.063L1351.95 647.018L1351.19 646.199L1350.09 646.428ZM1341.14 605.446L1340.5 607.32L1341.84 608.788L1343.81 608.379L1344.45 606.499L1343.12 605.037L1341.14 605.446ZM1332.21 564.483L1331.28 567.163L1333.2 569.262L1336.02 568.677L1336.94 565.991L1335.03 563.899L1332.21 564.483ZM1268.37 138.516L1277.63 148.692L1286.14 146.928L1281.33 123.746L1272.82 125.51L1268.37 138.516ZM1277.95 178.596L1286.39 187.861L1294.28 186.224L1289.91 165.108L1282.01 166.746L1277.95 178.596ZM1258.63 98.4767L1268.82 109.669L1278.01 107.762L1272.72 82.2544L1263.53 84.161L1258.63 98.4767ZM1248.97 58.4122L1260.04 70.5616L1269.88 68.5211L1264.13 40.824L1254.29 42.8645L1248.97 58.4122ZM1277.51 317.549L1274.43 326.567L1280.84 333.601L1290.33 331.632L1293.43 322.627L1287.01 315.581L1277.51 317.549ZM306.791 466.525L307.676 463.951L305.839 461.936L303.124 462.499L302.246 465.078L304.076 467.088L306.791 466.525ZM323.36 515.867L328.198 501.755L318.148 490.732L303.274 493.816L298.451 507.924L308.487 518.951L323.36 515.867ZM353.146 486.274L357.096 474.729L348.881 465.708L336.715 468.231L332.765 479.775L340.98 488.797L353.146 486.274ZM244.81 523.064L246.289 518.742L243.213 515.364L238.658 516.308L237.179 520.631L240.255 524.009L244.81 523.064ZM275.992 495.006L277.27 491.283L274.618 488.376L270.701 489.188L269.424 492.911L272.076 495.818L275.992 495.006ZM293.069 544.907L298.53 528.948L287.172 516.471L270.354 519.959L264.895 535.924L276.251 548.395L293.069 544.907ZM368.194 533.937L375.349 513.018L360.464 496.662L338.41 501.235L331.242 522.165L346.14 538.511L368.194 533.937ZM412.18 426.492L414.121 420.836L410.091 416.419L404.126 417.656L402.199 423.309L406.215 427.729L412.18 426.492ZM901.997 339.386L924.377 334.745L931.641 313.513L916.534 296.928L894.154 301.569L886.889 322.794L901.997 339.386ZM382.884 456.627L385.933 447.723L379.593 440.758L370.205 442.705L367.157 451.616L373.496 458.574L382.884 456.627ZM337.486 437.931L337.927 436.638L337.011 435.64L335.657 435.921L335.212 437.201L336.132 438.212L337.486 437.931ZM262.052 573.136L267.798 556.348L255.85 543.229L238.15 546.9L232.398 563.689L244.353 576.807L262.052 573.136ZM400.016 506.587L407.287 485.354L392.173 468.77L369.801 473.41L362.528 494.636L377.643 511.227L400.016 506.587ZM99.4197 843.667L90.0328 833.361L81.4364 835.144L86.3087 858.638L94.9051 856.856L99.4197 843.667ZM213.056 550.499L214.469 546.381L211.534 543.158L207.194 544.058L205.782 548.182L208.716 551.399L213.056 550.499ZM144.01 723.873L149.779 707.023L137.785 693.857L120.03 697.539L114.261 714.389L126.254 727.555L144.01 723.873ZM93.1062 699.128L93.6153 697.637L92.5552 696.471L90.9789 696.798L90.4698 698.289L91.53 699.455L93.1062 699.128ZM114.672 882.571L100.64 867.155L88.593 869.654L95.8789 904.787L107.926 902.288L114.672 882.571ZM458.394 446.086L463.328 431.672L453.068 420.402L437.868 423.555L432.935 437.975L443.194 449.239L458.394 446.086ZM106.384 744.854L109.256 736.46L103.283 729.901L94.4295 731.737L91.5568 740.131L97.5305 746.69L106.384 744.854ZM121.634 792.758L127.828 774.676L114.954 760.547L95.9004 764.498L89.7135 782.58L102.58 796.71L121.634 792.758ZM180.785 577.362L181.875 574.167L179.604 571.668L176.237 572.367L175.147 575.562L177.417 578.06L180.785 577.362ZM229.85 600.084L235.318 584.124L223.951 571.641L207.127 575.13L201.661 591.104L213.025 603.573L229.85 600.084ZM196.699 625.984L201.426 612.179L191.6 601.399L177.053 604.416L172.324 618.214L182.151 629.001L196.699 625.984ZM178.738 699.71L186.002 678.478L170.894 661.885L148.521 666.525L141.25 687.759L156.365 704.349L178.738 699.71ZM162.702 650.95L166.278 640.501L158.842 632.336L147.829 634.62L144.253 645.069L151.689 653.234L162.702 650.95ZM128.049 675.197L130.152 669.027L125.77 664.209L119.264 665.558L117.146 671.724L121.543 676.546L128.049 675.197ZM148.037 603.702L148.59 602.11L147.448 600.862L145.767 601.21L145.222 602.808L146.356 604.051L148.037 603.702ZM430.119 477.339L436.658 458.23L423.061 443.304L402.924 447.48L396.377 466.583L409.982 481.515L430.119 477.339ZM704.351 373.502L709.079 359.668L699.241 348.862L684.666 351.885L679.922 365.715L689.776 376.525L704.351 373.502ZM760.001 310.011L761.098 306.814L758.822 304.323L755.454 305.022L754.363 308.211L756.634 310.709L760.001 310.011ZM804.452 327.666L807.701 318.19L800.95 310.78L790.951 312.854L787.71 322.335L794.453 329.739L804.452 327.666ZM687.865 324.249L688.689 321.83L686.972 319.945L684.424 320.473L683.592 322.887L685.316 324.778L687.865 324.249ZM727.181 396.772L749.665 392.109L756.967 370.778L741.783 354.102L719.299 358.765L711.992 380.105L727.181 396.772ZM731.613 341.138L734.257 333.421L728.761 327.384L720.623 329.072L717.981 336.796L723.475 342.826L731.613 341.138ZM776.937 359.757L782.149 344.515L771.307 332.609L755.246 335.94L750.027 351.177L760.876 363.088L776.937 359.757ZM862.244 266.537L862.885 264.672L861.556 263.222L859.605 263.627L858.962 265.485L860.292 266.942L862.244 266.537ZM878.49 315.507L882.909 302.593L873.718 292.494L860.094 295.32L855.669 308.242L864.866 318.333L878.49 315.507ZM789.422 280.02L789.462 279.898L789.38 279.816L789.262 279.841L789.219 279.949L789.304 280.044L789.422 280.02ZM832.899 296.611L834.626 291.566L831.036 287.63L825.724 288.731L824.002 293.769L827.587 297.713L832.899 296.611ZM798.831 381.723L821.106 377.103L828.335 355.978L813.3 339.462L791.025 344.081L783.798 365.214L798.831 381.723ZM850.836 347.451L857.169 328.957L844.006 314.514L824.514 318.556L818.194 337.04L831.345 351.493L850.836 347.451ZM471.468 366.99L471.501 366.87L471.424 366.78L471.292 366.808L471.258 366.921L471.336 367.018L471.468 366.99ZM515.019 383.658L516.778 378.521L513.119 374.501L507.696 375.625L505.932 380.771L509.595 384.783L515.019 383.658ZM659.648 355.574L662.111 348.382L656.99 342.756L649.407 344.328L646.946 351.527L652.066 357.147L659.648 355.574ZM441.676 396.585L442.59 393.906L440.686 391.813L437.86 392.399L436.938 395.078L438.849 397.171L441.676 396.585ZM486.52 414.674L489.781 405.146L483.002 397.707L472.968 399.788L469.706 409.309L476.487 416.755L486.52 414.674ZM560.007 401.916L564.183 389.717L555.503 380.198L542.657 382.862L538.478 395.048L547.161 404.58L560.007 401.916ZM480.877 468.693L503.146 464.075L510.373 442.943L495.34 426.434L473.071 431.052L465.835 452.179L480.877 468.693ZM532.958 434.505L539.314 415.915L526.088 401.378L506.485 405.443L500.123 424.042L513.355 438.57L532.958 434.505ZM616.164 338.984L616.952 336.707L615.325 334.937L612.937 335.433L612.154 337.702L613.776 339.479L616.164 338.984ZM917.004 731.582L914.924 737.648L919.244 742.38L925.632 741.055L927.714 734.996L923.393 730.257L917.004 731.582ZM655.627 411.512L678 406.872L685.272 385.646L670.157 369.055L647.784 373.695L640.52 394.927L655.627 411.512ZM544.008 353.198L544.508 351.73L543.469 350.595L541.927 350.915L541.425 352.37L542.467 353.518L544.008 353.198ZM544.803 416.367L537.641 437.288L552.534 453.642L574.587 449.069L581.748 428.141L566.857 411.793L544.803 416.367ZM606.146 421.427L613.286 400.574L598.441 384.274L576.464 388.831L569.325 409.691L584.169 425.985L606.146 421.427ZM587.698 370.014L589.986 363.339L585.23 358.111L578.182 359.573L575.897 366.261L580.65 371.476L587.698 370.014ZM632.525 388.086L637.142 374.587L627.54 364.05L613.319 366.999L608.693 380.486L618.304 391.035L632.525 388.086ZM1061 702.788L1059.32 707.704L1062.82 711.532L1067.98 710.461L1069.67 705.558L1066.17 701.716L1061 702.788ZM1051.81 661.552L1049.73 667.618L1054.05 672.357L1060.44 671.032L1062.52 664.966L1058.2 660.227L1051.81 661.552ZM1042.52 620.203L1039.99 627.571L1045.24 633.333L1053.01 631.723L1055.53 624.35L1050.28 618.593L1042.52 620.203ZM1017.2 343.224L1011.44 360.065L1023.42 373.233L1041.19 369.549L1046.95 352.701L1034.96 339.541L1017.2 343.224ZM1045.96 468.247L1041.97 479.935L1050.28 489.071L1062.6 486.515L1066.6 474.826L1058.29 465.691L1045.96 468.247ZM1026.78 384.888L1021.6 400.025L1032.38 411.859L1048.33 408.55L1053.51 393.408L1042.74 381.579L1026.78 384.888ZM1036.39 426.581L1031.8 439.975L1041.34 450.441L1055.45 447.515L1060.04 434.12L1050.5 423.655L1036.39 426.581ZM985.785 371.027L980.118 387.601L991.906 400.548L1009.38 396.925L1015.05 380.358L1003.26 367.404L985.785 371.027ZM1033.18 578.807L1030.19 587.543L1036.41 594.364L1045.62 592.454L1048.61 583.725L1042.39 576.898L1033.18 578.807ZM995.451 412.786L990.412 427.533L1000.9 439.046L1016.43 435.825L1021.48 421.09L1010.98 409.565L995.451 412.786ZM1005 454.415L1000.52 467.497L1009.83 477.726L1023.62 474.866L1028.1 461.777L1018.79 451.555L1005 454.415ZM1023.86 537.422L1020.41 547.505L1027.59 555.378L1038.21 553.175L1041.66 543.099L1034.49 535.219L1023.86 537.422ZM1014.51 496.008L1010.58 507.478L1018.74 516.446L1030.84 513.937L1034.77 502.461L1026.6 493.5L1014.51 496.008ZM1067.9 398.88L1063.26 412.426L1072.9 422.998L1087.16 420.04L1091.8 406.508L1082.16 395.922L1067.9 398.88ZM1020.35 689.301L1018.34 695.17L1022.51 699.747L1028.69 698.467L1030.7 692.606L1026.52 688.021L1020.35 689.301ZM1077.43 440.51L1073.37 452.389L1081.82 461.679L1094.36 459.08L1098.43 447.193L1089.97 437.911L1077.43 440.51ZM1058.31 357.21L1053.09 372.468L1063.95 384.385L1080.02 381.051L1085.25 365.799L1074.39 353.876L1058.31 357.21ZM1086.83 481.958L1083.25 492.407L1090.69 500.572L1101.69 498.29L1105.27 487.841L1097.83 479.676L1086.83 481.958ZM1105.5 564.763L1102.86 572.474L1108.35 578.497L1116.47 576.813L1119.12 569.103L1113.62 563.08L1105.5 564.763ZM1096.18 523.386L1093.08 532.435L1099.52 539.513L1109.07 537.533L1112.17 528.477L1105.73 521.406L1096.18 523.386ZM1083.3 633.825L1081.16 640.074L1085.61 644.949L1092.18 643.587L1094.32 637.346L1089.87 632.463L1083.3 633.825ZM1064.67 551.082L1061.63 559.992L1067.96 566.957L1077.35 565.009L1080.4 556.098L1074.06 549.134L1064.67 551.082ZM1074.03 592.514L1071.47 600.017L1076.81 605.881L1084.71 604.241L1087.28 596.738L1081.94 590.874L1074.03 592.514ZM1101.6 716.222L1100.22 720.248L1103.09 723.4L1107.34 722.519L1108.71 718.487L1105.85 715.34L1101.6 716.222ZM1055.35 509.702L1051.84 519.955L1059.14 527.963L1069.95 525.723L1073.45 515.472L1066.16 507.461L1055.35 509.702ZM1092.51 675.092L1090.77 680.147L1094.38 684.087L1099.7 682.984L1101.43 677.937L1097.83 673.989L1092.51 675.092ZM1048.66 315.468L1042.83 332.522L1054.97 345.856L1072.94 342.128L1078.78 325.067L1066.64 311.74L1048.66 315.468ZM970.375 385.252L976.525 367.306L963.746 353.285L944.831 357.207L938.688 375.152L951.46 389.175L970.375 385.252ZM939.075 662.378L936.444 670.085L941.923 676.111L950.054 674.425L952.685 666.717L947.206 660.692L939.075 662.378ZM957.556 744.963L955.761 750.206L959.494 754.31L965.028 753.162L966.822 747.912L963.09 743.815L957.556 744.963ZM948.338 703.69L946.134 710.143L950.72 715.18L957.518 713.77L959.723 707.325L955.136 702.28L948.338 703.69ZM923.146 426.841L917.76 442.6L928.966 454.904L945.568 451.461L950.958 435.715L939.749 423.398L923.146 426.841ZM929.761 620.991L926.663 630.047L933.105 637.117L942.639 635.14L945.745 626.09L939.295 619.014L929.761 620.991ZM913.535 385.141L907.541 402.652L920.003 416.329L938.46 412.501L944.448 394.998L931.992 381.313L913.535 385.141ZM920.396 579.572L916.827 590.02L924.255 598.18L935.275 595.894L938.853 585.452L931.416 577.287L920.396 579.572ZM882.287 413.128L876.469 430.122L888.565 443.401L906.473 439.687L912.298 422.692L900.195 409.414L882.287 413.128ZM907.75 690.275L905.246 697.582L910.451 703.296L918.151 701.7L920.661 694.385L915.451 688.678L907.75 690.275ZM901.409 496.428L896.745 510.051L906.443 520.702L920.809 517.723L925.478 504.092L915.775 493.449L901.409 496.428ZM910.971 538.068L906.887 550.014L915.385 559.352L927.974 556.741L932.065 544.793L923.56 535.457L910.971 538.068ZM932.721 468.505L927.914 482.554L937.911 493.532L952.722 490.46L957.529 476.412L947.532 465.434L932.721 468.505ZM891.89 454.823L886.673 470.073L897.524 481.991L913.599 478.657L918.822 463.406L907.964 451.489L891.89 454.823ZM983.116 523.834L979.289 535L987.24 543.723L999.01 541.282L1002.83 530.118L994.885 521.394L983.116 523.834ZM942.323 510.2L938.111 522.506L946.87 532.122L959.847 529.43L964.06 517.125L955.301 507.509L942.323 510.2ZM964.071 440.624L959.131 455.046L969.397 466.308L984.597 463.156L989.531 448.742L979.271 437.472L964.071 440.624ZM1029.58 730.592L1027.98 735.229L1031.29 738.862L1036.18 737.848L1037.77 733.198L1034.47 729.578L1029.58 730.592ZM1011.11 648.013L1008.68 655.105L1013.73 660.648L1021.2 659.099L1023.62 652.006L1018.58 646.463L1011.11 648.013ZM992.473 565.254L989.126 575.027L996.083 582.662L1006.37 580.528L1009.73 570.754L1002.76 563.12L992.473 565.254ZM1001.78 606.628L998.892 615.068L1004.9 621.662L1013.8 619.818L1016.68 611.379L1010.68 604.783L1001.78 606.628ZM973.655 482.301L969.307 495.003L978.349 504.935L991.736 502.159L996.09 489.449L987.043 479.525L973.655 482.301ZM970.423 634.49L967.653 642.573L973.412 648.901L981.932 647.134L984.7 639.038L978.943 632.723L970.423 634.49ZM961.059 593.071L957.818 602.553L964.562 609.963L974.561 607.89L977.809 598.407L971.058 590.998L961.059 593.071ZM951.727 551.667L948.003 562.521L955.737 571.006L967.174 568.635L970.896 557.774L963.163 549.295L951.727 551.667ZM954.414 398.877L948.857 415.11L960.412 427.801L977.521 424.253L983.076 408.014L971.523 395.329L954.414 398.877ZM1114.81 606.138L1112.63 612.509L1117.16 617.492L1123.89 616.098L1126.07 609.721L1121.53 604.744L1114.81 606.138ZM979.66 675.78L977.315 682.636L982.193 687.994L989.421 686.495L991.765 679.639L986.888 674.281L979.66 675.78ZM988.951 717.128L987.049 722.691L991.004 727.025L996.857 725.811L998.763 720.262L994.805 715.914L988.951 717.128ZM1241.4 495.942L1239.29 502.113L1243.68 506.937L1250.19 505.588L1252.3 499.416L1247.91 494.593L1241.4 495.942ZM1191.09 440.702L1188.04 449.643L1194.39 456.625L1203.82 454.671L1206.88 445.735L1200.52 438.748L1191.09 440.702ZM1194.81 289.042L1190.41 301.918L1199.57 311.98L1213.14 309.165L1217.55 296.289L1208.39 286.227L1194.81 289.042ZM1204.2 330.491L1200.28 341.943L1208.42 350.881L1220.49 348.38L1224.41 336.94L1216.26 327.99L1204.2 330.491ZM1222.88 413.303L1219.89 422.003L1226.09 428.806L1235.26 426.904L1238.24 418.199L1232.05 411.401L1222.88 413.303ZM1213.56 371.932L1210.13 381.969L1217.26 389.807L1227.85 387.612L1231.29 377.581L1224.14 369.737L1213.56 371.932ZM1175.69 205.755L1170.14 221.986L1181.69 234.679L1198.8 231.131L1204.36 214.89L1192.8 202.207L1175.69 205.755ZM1237 646.846L1235.9 650.052L1238.18 652.547L1241.56 651.847L1242.66 648.649L1240.38 646.147L1237 646.846ZM1232.17 454.652L1229.63 462.05L1234.9 467.837L1242.71 466.218L1245.23 458.815L1239.97 453.034L1232.17 454.652ZM1133.14 688.556L1131.73 692.687L1134.66 695.911L1139.02 695.008L1140.44 690.882L1137.49 687.653L1133.14 688.556ZM1209.65 523.37L1207.47 529.747L1212 534.724L1218.72 533.33L1220.91 526.959L1216.37 521.976L1209.65 523.37ZM1246.02 687.905L1245.25 690.172L1246.86 691.952L1249.26 691.455L1250.03 689.18L1248.42 687.408L1246.02 687.905ZM1227.97 605.789L1226.56 609.921L1229.5 613.151L1233.85 612.248L1235.27 608.115L1232.33 604.886L1227.97 605.789ZM1218.82 564.582L1217.02 569.833L1220.76 573.929L1226.28 572.783L1228.08 567.539L1224.35 563.435L1218.82 564.582ZM1185.28 247.424L1180.3 261.946L1190.65 273.291L1205.95 270.117L1210.91 255.598L1200.59 244.25L1185.28 247.424ZM1236.15 303.284L1232.4 314.242L1240.2 322.806L1251.75 320.41L1255.5 309.451L1247.7 300.888L1236.15 303.284ZM1245.47 344.663L1242.17 354.283L1249.03 361.812L1259.17 359.708L1262.46 350.076L1255.61 342.559L1245.47 344.663ZM1282.33 509.726L1280.67 514.565L1284.12 518.341L1289.21 517.284L1290.87 512.452L1287.43 508.669L1282.33 509.726ZM1254.77 386.03L1251.94 394.325L1257.83 400.801L1266.58 398.986L1269.42 390.699L1263.52 384.216L1254.77 386.03ZM1273.22 468.585L1271.22 474.459L1275.4 479.051L1281.59 477.767L1283.6 471.892L1279.42 467.301L1273.22 468.585ZM1226.84 261.911L1222.63 274.209L1231.38 283.819L1244.34 281.132L1248.55 268.833L1239.79 259.224L1226.84 261.911ZM1264 427.301L1261.56 434.395L1266.62 439.936L1274.1 438.385L1276.52 431.293L1271.48 425.75L1264 427.301ZM1277.68 660.363L1276.92 662.577L1278.5 664.301L1280.83 663.817L1281.58 661.611L1280.01 659.879L1277.68 660.363ZM1259.66 578.283L1258.28 582.303L1261.15 585.455L1265.39 584.575L1266.77 580.542L1263.9 577.404L1259.66 578.283ZM1250.56 537.148L1248.84 542.201L1252.43 546.143L1257.76 545.039L1259.49 539.992L1255.89 536.044L1250.56 537.148ZM1217.31 220.293L1212.54 234.235L1222.46 245.123L1237.14 242.077L1241.92 228.142L1231.99 217.248L1217.31 220.293ZM1207.87 178.784L1202.58 194.226L1213.57 206.298L1229.85 202.923L1235.13 187.475L1224.14 175.409L1207.87 178.784ZM1198.34 137.173L1192.48 154.253L1204.65 167.609L1222.66 163.875L1228.51 146.783L1216.35 133.439L1198.34 137.173ZM1268.68 619.335L1267.62 622.432L1269.83 624.86L1273.1 624.181L1274.16 621.076L1271.95 618.657L1268.68 619.335ZM1200.41 482.08L1197.8 489.684L1203.22 495.624L1211.23 493.962L1213.84 486.358L1208.43 480.418L1200.41 482.08ZM1127.79 495.79L1124.69 504.846L1131.14 511.923L1140.68 509.945L1143.77 500.889L1137.33 493.812L1127.79 495.79ZM1137.11 537.176L1134.48 544.883L1139.96 550.902L1148.08 549.217L1150.72 541.515L1145.24 535.491L1137.11 537.176ZM1146.35 578.465L1144.14 584.948L1148.74 590.002L1155.57 588.585L1157.79 582.116L1153.18 577.048L1146.35 578.465ZM1164.69 660.895L1163.25 665.118L1166.25 668.413L1170.69 667.491L1172.14 663.274L1169.13 659.974L1164.69 660.895ZM1155.54 619.708L1153.73 625.025L1157.5 629.177L1163.1 628.015L1164.93 622.702L1161.14 618.546L1155.54 619.708ZM1173.71 701.947L1172.57 705.244L1174.93 707.824L1178.41 707.102L1179.52 703.802L1177.19 701.226L1173.71 701.947ZM1118.43 454.37L1114.86 464.819L1122.29 472.984L1133.31 470.699L1136.88 460.251L1129.45 452.085L1118.43 454.37ZM1123.99 647.348L1122.19 652.592L1125.92 656.696L1131.44 655.551L1133.24 650.299L1129.51 646.203L1123.99 647.348ZM1080.28 287.886L1074.44 304.941L1086.58 318.267L1104.56 314.539L1110.39 297.485L1098.26 284.157L1080.28 287.886ZM1111.97 260.373L1106.15 277.323L1118.23 290.578L1136.1 286.873L1141.89 269.912L1129.83 256.668L1111.97 260.373ZM1109 412.86L1104.9 424.817L1113.42 434.158L1126.02 431.544L1130.11 419.589L1121.6 410.246L1109 412.86ZM1089.85 329.55L1084.61 344.891L1095.52 356.882L1111.69 353.528L1116.95 338.185L1106.03 326.197L1089.85 329.55ZM1099.44 371.219L1094.77 384.85L1104.48 395.5L1118.85 392.521L1123.5 378.893L1113.81 368.24L1099.44 371.219ZM1187.16 592.117L1185.33 597.43L1189.12 601.593L1194.73 600.431L1196.55 595.105L1192.76 590.955L1187.16 592.117ZM1143.77 232.997L1138.06 249.68L1149.94 262.708L1167.5 259.064L1173.21 242.39L1161.34 229.354L1143.77 232.997ZM1196.29 633.301L1194.84 637.525L1197.86 640.838L1202.31 639.914L1203.76 635.676L1200.75 632.376L1196.29 633.301ZM1162.88 316.287L1158.33 329.604L1167.8 340.019L1181.84 337.107L1186.41 323.78L1176.92 313.375L1162.88 316.287ZM1121.55 302.043L1116.33 317.28L1127.18 329.191L1143.23 325.862L1148.45 310.618L1137.6 298.714L1121.55 302.043ZM1205.32 674.358L1204.19 677.66L1206.54 680.228L1210.01 679.508L1211.15 676.218L1208.79 673.638L1205.32 674.358ZM1153.37 274.693L1148.27 289.63L1158.89 301.292L1174.63 298.028L1179.74 283.104L1169.11 271.429L1153.37 274.693ZM1172.41 357.891L1168.41 369.58L1176.73 378.722L1189.05 376.166L1193.05 364.47L1184.73 355.335L1172.41 357.891ZM1140.66 385.331L1136.59 397.218L1145.05 406.501L1157.58 403.903L1161.65 392.023L1153.19 382.733L1140.66 385.331ZM1131.11 343.703L1126.49 357.247L1136.12 367.821L1150.39 364.861L1155.02 351.33L1145.38 340.743L1131.11 343.703ZM1150.05 426.781L1146.47 437.23L1153.91 445.395L1164.92 443.111L1168.49 432.662L1161.06 424.497L1150.05 426.781ZM1181.75 399.292L1178.23 409.61L1185.56 417.676L1196.44 415.421L1199.96 405.103L1192.63 397.037L1181.75 399.292ZM1159.4 468.201L1156.31 477.257L1162.75 484.334L1172.3 482.354L1175.39 473.3L1168.95 466.221L1159.4 468.201ZM1177.97 550.881L1175.75 557.358L1180.36 562.418L1187.19 561.003L1189.4 554.527L1184.79 549.466L1177.97 550.881ZM1176.85 507.901L1182.33 513.926L1179.7 521.635L1171.57 523.32L1166.09 517.295L1168.72 509.586L1176.85 507.901Z" fill="url(#paint0_radial_231_233)" fill-opacity="0.3"/>
<defs>
<radialGradient id="paint0_radial_231_233" cx="0" cy="0" r="1" gradientUnits="userSpaceOnUse" gradientTransform="translate(693.637 543.599) rotate(-68.3256) scale(521.727 446.004)">
<stop stop-color="#FF4E27"/>
<stop offset="1" stop-color="#100F2C"/>
</radialGradient>
</defs>
</svg>
