<svg width="16" height="16" viewBox="0 0 16 16" fill="none" xmlns="http://www.w3.org/2000/svg">
<g id="jam:instagram">
<g id="Group">
<path id="Vector" d="M10.678 1.33325H5.29798C4.24675 1.33449 3.23894 1.75268 2.49567 2.49608C1.7524 3.23947 1.33437 4.24735 1.33331 5.29859L1.33331 10.6786C1.33455 11.7298 1.75274 12.7376 2.49614 13.4809C3.23953 14.2242 4.24741 14.6422 5.29865 14.6433H10.6786C11.7299 14.642 12.7377 14.2238 13.481 13.4804C14.2242 12.737 14.6423 11.7292 14.6433 10.6779V5.29792C14.6421 4.24669 14.2239 3.23888 13.4805 2.4956C12.7371 1.75233 11.7292 1.33431 10.678 1.33325ZM13.3046 10.6779C13.3046 11.0229 13.2367 11.3644 13.1047 11.6831C12.9727 12.0018 12.7792 12.2913 12.5353 12.5353C12.2914 12.7792 12.0018 12.9726 11.6832 13.1046C11.3645 13.2366 11.0229 13.3046 10.678 13.3046H5.29798C4.60146 13.3044 3.93353 13.0276 3.44108 12.535C2.94863 12.0424 2.67198 11.3744 2.67198 10.6779V5.29792C2.67216 4.6014 2.94897 3.93347 3.44155 3.44102C3.93412 2.94856 4.60213 2.67192 5.29865 2.67192H10.6786C11.3752 2.6721 12.0431 2.94891 12.5355 3.44149C13.028 3.93406 13.3046 4.60207 13.3046 5.29859V10.6779Z" fill="white"/>
<path id="Vector_2" d="M7.98796 4.5459C7.07558 4.54731 6.20099 4.91042 5.5559 5.55564C4.91081 6.20085 4.54787 7.07552 4.54663 7.9879C4.54769 8.90051 4.91065 9.77545 5.5559 10.4208C6.20115 11.0662 7.07602 11.4293 7.98863 11.4306C8.90136 11.4295 9.7764 11.0665 10.4218 10.4211C11.0672 9.77567 11.4302 8.90063 11.4313 7.9879C11.4299 7.07529 11.0666 6.20049 10.4211 5.55536C9.77559 4.91023 8.90058 4.54745 7.98796 4.54657V4.5459ZM7.98796 10.0919C7.43013 10.0919 6.89513 9.8703 6.50068 9.47585C6.10623 9.0814 5.88463 8.5464 5.88463 7.98857C5.88463 7.43073 6.10623 6.89574 6.50068 6.50128C6.89513 6.10683 7.43013 5.88523 7.98796 5.88523C8.5458 5.88523 9.08079 6.10683 9.47525 6.50128C9.8697 6.89574 10.0913 7.43073 10.0913 7.98857C10.0913 8.5464 9.8697 9.0814 9.47525 9.47585C9.08079 9.8703 8.5458 10.0919 7.98796 10.0919Z" fill="white"/>
<path id="Vector_3" d="M11.4373 5.39665C11.8928 5.39665 12.262 5.02743 12.262 4.57198C12.262 4.11653 11.8928 3.74731 11.4373 3.74731C10.9819 3.74731 10.6127 4.11653 10.6127 4.57198C10.6127 5.02743 10.9819 5.39665 11.4373 5.39665Z" fill="white"/>
</g>
</g>
</svg>
