<svg width="72" height="72" viewBox="0 0 72 72" fill="none" xmlns="http://www.w3.org/2000/svg">
<g id="iconoir:medal-1st">
<g id="Group">
<path id="Vector" d="M42.816 31.335L54 6M27.948 31.896L15 6M38.286 30.144L26.505 6M43.08 6L39.96 13.5M18 48C18 52.7739 19.8964 57.3523 23.2721 60.7279C26.6477 64.1036 31.2261 66 36 66C40.7739 66 45.3523 64.1036 48.7279 60.7279C52.1036 57.3523 54 52.7739 54 48C54 43.2261 52.1036 38.6477 48.7279 35.2721C45.3523 31.8964 40.7739 30 36 30C31.2261 30 26.6477 31.8964 23.2721 35.2721C19.8964 38.6477 18 43.2261 18 48Z" stroke="#FF4E27" stroke-width="3" stroke-linecap="round" stroke-linejoin="round"/>
<path id="Vector_2" d="M31.5 45L37.5 40.5V55.5" stroke="#FF4E27" stroke-width="3" stroke-linecap="round" stroke-linejoin="round"/>
</g>
</g>
</svg>
