<svg width="375" height="812" viewBox="0 0 375 812" fill="none" xmlns="http://www.w3.org/2000/svg">
<path d="M334.668 728.02L336.04 731.555L339.799 732.056L342.186 729.022L340.817 725.483L337.056 724.986L334.668 728.02ZM291.767 695.459L293.803 700.708L299.383 701.451L302.931 696.942L300.892 691.697L295.315 690.95L291.767 695.459ZM309.737 738.127L311.227 741.966L315.306 742.508L317.899 739.212L316.41 735.378L312.33 734.831L309.737 738.127ZM208.985 603.879L212.732 613.538L222.998 614.904L229.519 606.614L225.775 596.959L215.506 595.59L208.985 603.879ZM270.267 679.168L272.655 685.318L279.191 686.189L283.342 680.912L280.96 674.761L274.418 673.891L270.267 679.168ZM187.353 587.577L191.501 598.26L202.854 599.772L210.071 590.598L205.93 579.92L194.57 578.403L187.353 587.577ZM186.141 600.839L181.75 589.512L169.711 587.913L162.063 597.635L166.453 608.956L178.492 610.561L186.141 600.839ZM288.218 721.838L290.061 726.592L295.119 727.267L298.333 723.183L296.486 718.426L291.431 717.753L288.218 721.838ZM248.773 662.882L251.504 669.932L258.999 670.927L263.756 664.88L261.025 657.83L253.531 656.834L248.773 662.882ZM230.658 620.192L233.991 628.786L243.128 630.003L248.932 622.626L245.599 614.032L236.462 612.815L230.658 620.192ZM341.809 675.267L343.547 679.749L348.31 680.381L351.337 676.533L349.602 672.054L344.836 671.419L341.809 675.267ZM183.714 613.942L187.698 624.222L198.631 625.678L205.573 616.854L201.585 606.571L190.655 605.118L183.714 613.942ZM205.503 630.271L209.033 639.375L218.715 640.666L224.864 632.85L221.331 623.744L211.652 622.456L205.503 630.271ZM313.194 711.738L314.906 716.154L319.598 716.776L322.581 712.985L320.872 708.572L316.177 707.947L313.194 711.738ZM234.275 593.821L237.771 602.846L247.366 604.12L253.459 596.375L249.96 587.353L240.368 586.076L234.275 593.821ZM255.952 610.136L259.036 618.088L267.49 619.213L272.862 612.384L269.778 604.433L261.325 603.307L255.952 610.136ZM252.297 636.5L255.231 644.059L263.268 645.132L268.377 638.639L265.442 631.08L257.405 630.007L252.297 636.5ZM147.499 703.103L151.261 712.807L161.578 714.179L168.13 705.851L164.368 696.147L154.052 694.774L147.499 703.103ZM298.949 642.71L301.338 648.86L307.874 649.731L312.028 644.451L309.643 638.304L303.103 637.43L298.949 642.71ZM320.382 658.988L322.444 664.303L328.091 665.053L331.68 660.491L329.622 655.179L323.971 654.426L320.382 658.988ZM277.487 626.426L280.209 633.445L287.672 634.439L292.41 628.416L289.688 621.397L282.226 620.403L277.487 626.426ZM273.864 652.792L276.421 659.396L283.437 660.324L287.892 654.662L285.333 648.068L278.318 647.13L273.864 652.792ZM212.531 577.504L216.467 587.655L227.259 589.091L234.117 580.374L230.181 570.223L219.39 568.787L212.531 577.504ZM295.358 669.084L297.568 674.779L303.627 675.59L307.475 670.699L305.264 664.997L299.206 664.193L295.358 669.084ZM214.669 564.357L210.333 553.182L198.454 551.6L190.902 561.198L195.233 572.374L207.118 573.955L214.669 564.357ZM316.788 685.36L318.672 690.226L323.848 690.914L327.134 686.738L325.244 681.872L320.074 681.183L316.788 685.36ZM338.253 701.646L339.804 705.643L344.05 706.207L346.748 702.776L345.199 698.786L340.952 698.216L338.253 701.646ZM227.16 646.577L230.284 654.634L238.85 655.773L244.289 648.86L241.163 640.806L232.599 639.663L227.16 646.577ZM153.236 663.593L148.901 652.408L137.006 650.825L129.452 660.427L133.793 671.611L145.682 673.195L153.236 663.593ZM151.161 676.738L155.071 686.828L165.795 688.252L172.609 679.591L168.696 669.51L157.975 668.077L151.161 676.738ZM281.507 774.649L282.833 778.057L286.454 778.541L288.758 775.613L287.435 772.207L283.811 771.72L281.507 774.649ZM238.057 742.011L240.244 747.642L246.236 748.445L250.042 743.607L247.854 737.97L241.863 737.173L238.057 742.011ZM266.676 705.542L268.883 711.241L274.944 712.047L278.792 707.156L276.581 701.455L270.523 700.651L266.676 705.542ZM216.422 725.705L219.005 732.375L226.096 733.316L230.597 727.594L228.014 720.924L220.924 719.983L216.422 725.705ZM172.95 693.067L176.406 701.981L185.883 703.242L191.901 695.593L188.448 686.675L178.968 685.418L172.95 693.067ZM191.126 735.765L193.96 743.074L201.731 744.109L206.667 737.835L203.835 730.523L196.061 729.491L191.126 735.765ZM169.295 719.432L172.598 727.956L181.658 729.158L187.414 721.841L184.109 713.326L175.051 712.114L169.295 719.432ZM256.624 784.758L258.044 788.43L261.944 788.944L264.417 785.8L262.997 782.135L259.097 781.614L256.624 784.758ZM212.831 752.08L215.242 758.294L221.845 759.172L226.041 753.839L223.633 747.628L217.027 746.747L212.831 752.08ZM279.183 801.189L279.865 802.957L281.748 803.207L282.941 801.69L282.255 799.92L280.376 799.672L279.183 801.189ZM234.668 768.413L236.607 773.408L241.915 774.114L245.29 769.824L243.354 764.832L238.043 764.123L234.668 768.413ZM194.723 709.39L197.735 717.141L205.974 718.241L211.21 711.586L208.205 703.833L199.959 702.734L194.723 709.39ZM284.758 748.23L286.382 752.41L290.824 753.002L293.648 749.413L292.028 745.235L287.582 744.64L284.758 748.23ZM180.138 640.317L183.943 650.13L194.376 651.519L201.003 643.095L197.196 633.286L186.766 631.893L180.138 640.317ZM158.436 624.005L162.668 634.909L174.255 636.45L181.617 627.093L177.395 616.19L165.798 614.647L158.436 624.005ZM201.844 656.633L205.225 665.35L214.49 666.582L220.375 659.102L216.997 650.387L207.729 649.153L201.844 656.633ZM245.133 689.247L247.707 695.893L254.772 696.83L259.255 691.133L256.68 684.487L249.616 683.55L245.133 689.247ZM223.543 672.948L226.501 680.577L234.608 681.654L239.758 675.107L236.801 667.485L228.693 666.402L223.543 672.948ZM219.952 699.323L222.735 706.499L230.365 707.515L235.211 701.354L232.426 694.182L224.799 693.162L219.952 699.323ZM176.57 666.699L180.194 676.031L190.117 677.357L196.425 669.339L192.804 660.003L182.878 658.681L176.57 666.699ZM198.32 683.014L201.501 691.219L210.224 692.379L215.761 685.342L212.58 677.137L203.857 675.977L198.32 683.014ZM306.393 764.535L307.613 767.688L310.968 768.134L313.096 765.429L311.873 762.273L308.522 761.83L306.393 764.535ZM154.826 650.376L158.885 660.846L170.02 662.329L177.092 653.34L173.03 642.867L161.899 641.386L154.826 650.376ZM259.74 758.319L261.506 762.887L266.361 763.529L269.442 759.614L267.672 755.05L262.82 754.404L259.74 758.319ZM263.148 731.921L265.162 737.113L270.674 737.842L274.174 733.393L272.165 728.211L266.648 727.472L263.148 731.921ZM241.581 715.629L243.969 721.779L250.505 722.65L254.659 717.37L252.275 711.223L245.735 710.349L241.581 715.629ZM363.207 691.54L364.631 695.214L368.537 695.734L371.019 692.579L369.592 688.908L365.688 688.385L363.207 691.54ZM360.053 543.432L362.564 549.902L369.44 550.817L373.808 545.265L371.3 538.797L364.421 537.88L360.053 543.432ZM338.55 527.15L341.407 534.523L349.249 535.568L354.229 529.237L351.371 521.858L343.53 520.82L338.55 527.15ZM402.948 576L404.792 580.76L409.86 581.437L413.079 577.346L411.228 572.58L406.167 571.908L402.948 576ZM316.921 510.844L320.179 519.236L329.101 520.427L334.771 513.219L331.517 504.824L322.591 503.637L316.921 510.844ZM424.317 592.267L425.863 596.255L430.099 596.817L432.793 593.393L431.247 589.412L427.01 588.844L424.317 592.267ZM381.477 559.714L383.664 565.346L389.655 566.149L393.461 561.311L391.273 555.673L385.283 554.876L381.477 559.714ZM399.177 602.347L400.916 606.83L405.678 607.462L408.702 603.618L406.967 599.138L402.202 598.503L399.177 602.347ZM377.818 586.082L379.854 591.33L385.434 592.074L388.982 587.564L386.946 582.316L381.366 581.573L377.818 586.082ZM216.099 551.123L220.223 561.753L231.521 563.256L238.697 554.135L234.58 543.505L223.275 542.002L216.099 551.123ZM334.891 553.512L337.6 560.498L345.024 561.483L349.74 555.489L347.032 548.509L339.607 547.517L334.891 553.512ZM273.631 478.223L277.694 488.703L288.828 490.18L295.901 481.19L291.842 470.72L280.704 469.234L273.631 478.223ZM295.244 494.529L298.914 503.994L308.977 505.333L315.368 497.21L311.698 487.744L301.635 486.405L295.244 494.529ZM277.226 451.852L281.459 462.774L293.072 464.318L300.445 454.947L296.211 444.024L284.599 442.48L277.226 451.852ZM420.585 618.623L422.005 622.288L425.901 622.805L428.377 619.658L426.957 615.993L423.061 615.475L420.585 618.623ZM302.519 441.796L306.508 452.079L317.434 453.529L324.375 444.705L320.394 434.428L309.461 432.972L302.519 441.796ZM324.27 458.117L327.814 467.261L337.537 468.555L343.714 460.704L340.164 451.562L330.447 450.266L324.27 458.117ZM388.982 507.008L391.402 513.246L398.035 514.13L402.25 508.772L399.83 502.534L393.198 501.65L388.982 507.008ZM304.947 428.693L300.559 417.369L288.514 415.765L280.865 425.486L285.262 436.813L297.298 438.415L304.947 428.693ZM367.444 490.715L370.226 497.892L377.853 498.904L382.699 492.744L379.92 485.57L372.29 484.555L367.444 490.715ZM345.94 474.428L349.076 482.505L357.664 483.651L363.121 476.716L359.991 468.632L351.396 467.493L345.94 474.428ZM427.998 565.906L429.688 570.259L434.312 570.874L437.253 567.136L435.564 562.79L430.939 562.168L427.998 565.906ZM363.782 517.08L366.416 523.87L373.632 524.829L378.217 519.001L375.589 512.21L368.367 511.252L363.782 517.08ZM342.237 500.788L345.237 508.519L353.457 509.616L358.682 502.974L355.682 495.243L347.462 494.147L342.237 500.788ZM320.541 484.469L323.959 493.296L333.345 494.543L339.302 486.971L335.878 478.145L326.497 476.897L320.541 484.469ZM406.642 549.637L408.626 554.759L414.071 555.482L417.529 551.086L415.543 545.968L410.1 545.241L406.642 549.637ZM449.402 582.185L450.776 585.717L454.532 586.221L456.925 583.18L455.554 579.644L451.795 579.144L449.402 582.185ZM298.906 468.164L302.724 478.016L313.198 479.408L319.851 470.952L316.029 461.104L305.558 459.708L298.906 468.164ZM385.209 533.359L387.519 539.317L393.85 540.158L397.873 535.044L395.566 529.089L389.232 528.245L385.209 533.359ZM356.391 569.797L358.75 575.884L365.219 576.742L369.325 571.522L366.967 565.441L360.498 564.577L356.391 569.797ZM243.285 527.892L238.974 516.777L227.156 515.203L219.649 524.744L223.963 535.856L235.778 537.434L243.285 527.892ZM241.265 541.046L245.183 551.154L255.93 552.584L262.755 543.909L258.833 533.804L248.09 532.371L241.265 541.046ZM262.964 557.362L266.462 566.378L276.045 567.653L282.133 559.915L278.64 550.898L269.052 549.624L262.964 557.362ZM306.17 589.968L308.892 596.988L316.355 597.981L321.096 591.955L318.374 584.935L310.911 583.942L306.17 589.968ZM345.451 648.898L347.343 653.782L352.539 654.474L355.836 650.284L353.94 645.397L348.748 644.707L345.451 648.898ZM284.644 573.674L287.724 581.623L296.175 582.746L301.542 575.924L298.458 567.979L290.011 566.852L284.644 573.674ZM324.002 632.619L326.226 638.353L332.326 639.168L336.202 634.241L333.975 628.504L327.878 627.693L324.002 632.619ZM366.83 665.174L368.42 669.27L372.772 669.848L375.54 666.329L373.954 662.236L369.598 661.655L366.83 665.174ZM259.412 583.744L262.719 592.272L271.785 593.479L277.547 586.154L274.237 577.63L265.174 576.42L259.412 583.744ZM237.738 567.431L241.459 577.023L251.658 578.382L258.135 570.149L254.416 560.554L244.215 559.198L237.738 567.431ZM313.388 537.224L316.449 545.112L324.832 546.228L330.16 539.455L327.102 531.57L318.716 530.451L313.388 537.224ZM302.544 616.338L305.106 622.934L312.117 623.87L316.574 618.204L314.018 611.607L307.001 610.672L302.544 616.338ZM281.002 600.043L283.928 607.584L291.946 608.653L297.04 602.177L294.111 594.64L286.096 593.567L281.002 600.043ZM327.635 606.248L330.023 612.399L336.559 613.27L340.713 607.99L338.328 601.842L331.789 600.968L327.635 606.248ZM374.134 612.44L376.026 617.324L381.222 618.016L384.521 613.822L382.626 608.935L377.434 608.246L374.134 612.44ZM395.516 628.712L397.105 632.809L401.457 633.387L404.223 629.871L402.636 625.778L398.281 625.197L395.516 628.712ZM271.9 491.421L267.615 480.372L255.867 478.808L248.405 488.293L252.688 499.345L264.438 500.906L271.9 491.421ZM291.717 520.914L295.187 529.867L304.705 531.132L310.751 523.447L307.279 514.497L297.763 513.229L291.717 520.914ZM269.969 504.588L273.88 514.679L284.607 516.105L291.419 507.447L287.505 497.36L276.781 495.931L269.969 504.588ZM352.727 596.165L354.937 601.86L360.995 602.67L364.846 597.776L362.632 592.078L356.577 591.271L352.727 596.165ZM331.229 579.877L333.792 586.473L340.803 587.408L345.257 581.746L342.701 575.149L335.684 574.215L331.229 579.877ZM244.802 514.669L248.92 525.277L260.192 526.777L267.357 517.671L263.248 507.064L251.966 505.562L244.802 514.669ZM370.472 638.805L372.219 643.305L377.001 643.941L380.039 640.079L378.296 635.582L373.511 634.943L370.472 638.805ZM391.832 655.077L393.275 658.806L397.242 659.333L399.76 656.133L398.313 652.401L394.35 651.876L391.832 655.077ZM288.103 547.282L291.407 555.807L300.47 557.011L306.226 549.694L302.917 541.176L293.86 539.965L288.103 547.282ZM309.687 563.581L312.611 571.126L320.631 572.191L325.725 565.716L322.797 558.178L314.782 557.106L309.687 563.581ZM349.065 622.53L351.127 627.845L356.774 628.595L360.363 624.033L358.308 618.717L352.654 617.968L349.065 622.53ZM266.462 530.977L270.17 540.53L280.327 541.885L286.779 533.684L283.074 524.128L272.914 522.776L266.462 530.977ZM388.125 681.429L388.546 682.527L391.576 678.676L390.412 678.522L388.125 681.429ZM350.26 139.349L345.68 127.53L333.112 125.858L325.129 136.004L329.715 147.822L342.277 149.495L350.26 139.349ZM342.183 178.557L346.555 189.824L358.53 191.418L366.142 181.742L361.777 170.475L349.795 168.882L342.183 178.557ZM350.377 287.054L345.816 275.296L333.318 273.634L325.381 283.724L329.938 295.479L342.439 297.144L350.377 287.054ZM354.516 260.756L349.933 248.935L337.365 247.263L329.383 257.409L333.968 269.227L346.534 270.903L354.516 260.756ZM358.55 234.438L353.977 222.653L341.45 220.985L333.493 231.099L338.062 242.882L350.592 244.552L358.55 234.438ZM362.455 208.104L357.943 196.476L345.587 194.833L337.732 204.817L342.237 216.44L354.6 218.088L362.455 208.104ZM330.147 109.819L334.385 120.751L346.004 122.294L353.383 112.915L349.148 101.986L337.526 100.44L330.147 109.819ZM231.179 2.66546L235.539 13.9047L247.492 15.499L251.949 9.83353L235.636 -2.99999L231.179 2.66546ZM313.151 105.471L325.861 107.162L333.935 96.8989L329.3 84.9446L316.59 83.2533L308.516 93.5162L313.151 105.471ZM254.826 31.6666L268.754 33.521L273.84 27.0563L254.828 12.0988L249.742 18.5635L254.826 31.6666ZM275.971 47.06L288.953 48.7883L293.736 42.7091L276.015 28.7674L271.232 34.8466L275.971 47.06ZM318.18 77.9429L329.382 79.4331L333.6 74.0718L318.313 62.0449L314.095 67.4063L318.18 77.9429ZM297.077 62.4965L309.164 64.1049L313.663 58.3864L297.164 45.4062L292.665 51.1247L297.077 62.4965ZM162.307 611.093L157.632 599.039L144.814 597.331L136.67 607.682L141.348 619.739L154.163 621.445L162.307 611.093ZM169.081 544.866L173.882 557.243L187.04 558.996L195.401 548.368L190.601 535.992L177.442 534.239L169.081 544.866ZM190.691 574.595L186.126 562.822L173.605 561.153L165.654 571.261L170.222 583.037L182.739 584.703L190.691 574.595ZM140.194 581.301L145.068 593.867L158.432 595.65L166.924 584.856L162.049 572.284L148.685 570.507L140.194 581.301ZM197.885 508.418L202.64 520.689L215.686 522.422L223.969 511.894L219.211 499.626L206.168 497.89L197.885 508.418ZM219.306 538.124L214.767 526.417L202.314 524.756L194.404 534.81L198.95 546.522L211.396 548.178L219.306 538.124ZM346.215 313.352L341.692 301.681L329.281 300.029L321.398 310.048L325.927 321.719L338.332 323.371L346.215 313.352ZM172.563 518.474L177.578 531.409L191.333 533.242L200.07 522.137L195.051 509.2L181.299 507.37L172.563 518.474ZM125.159 700.133L120.602 688.378L108.101 686.713L100.163 696.803L104.724 708.561L117.222 710.223L125.159 700.133ZM341.911 339.63L337.469 328.176L325.295 326.557L317.558 336.392L321.997 347.843L334.174 349.465L341.911 339.63ZM157.754 637.341L153.254 625.733L140.913 624.092L133.073 634.058L137.575 645.662L149.913 647.307L157.754 637.341ZM129.571 673.866L124.888 661.788L112.047 660.079L103.889 670.448L108.575 682.523L121.414 684.235L129.571 673.866ZM314.663 80.9071L309.562 67.7618L295.586 65.898L286.704 77.1866L291.806 90.3319L305.782 92.1957L314.663 80.9071ZM107.573 644.084L112.403 656.529L125.629 658.289L134.032 647.608L129.208 635.168L115.976 633.403L107.573 644.084ZM138.511 621.355L133.539 608.522L119.9 606.712L111.238 617.721L116.21 630.548L129.85 632.364L138.511 621.355ZM474.513 572.099L474.817 572.871L477.41 569.575L476.585 569.464L474.513 572.099ZM445.606 608.529L445.989 609.513L448.872 605.849L447.823 605.711L445.606 608.529ZM359.555 717.907L359.935 718.893L362.818 715.23L361.769 715.092L359.555 717.907ZM416.805 644.974L417.231 646.066L420.258 642.218L419.094 642.064L416.805 644.974ZM503.471 535.675L503.675 536.19L505.92 533.336L505.371 533.259L503.471 535.675ZM410.37 523.279L412.475 528.725L418.266 529.491L421.941 524.819L419.828 519.378L414.046 518.608L410.37 523.279ZM590.749 278.773L591.329 280.26L592.907 280.471L593.911 279.194L593.724 278.721L592.257 277.567L591.753 277.497L590.749 278.773ZM78.8452 931.664L74.3937 931.071L72.3181 933.709L78.3942 938.489L80.4698 935.851L78.8452 931.664ZM330.995 123.362L325.948 110.34L312.104 108.5L303.312 119.675L308.361 132.694L322.203 134.538L330.995 123.362ZM331.209 754.412L331.47 755.075L333.918 751.963L333.209 751.869L331.209 754.412ZM653.807 327.444L653.862 327.58L654.007 327.602L654.099 327.485L654.046 327.346L653.899 327.327L653.807 327.444ZM611.839 295.011L612.218 295.979L613.248 296.119L613.907 295.281L613.531 294.309L612.499 294.173L611.839 295.011ZM532.538 499.268L532.599 499.425L534.363 497.182L534.197 497.16L532.538 499.268ZM56.4423 919.226L56.089 918.319L55.127 918.192L54.5149 918.97L54.8648 919.875L55.8302 920.004L56.4423 919.226ZM128.025 977.536L145.584 991.35L150.575 985.005L145.972 973.145L132.855 971.396L128.025 977.536ZM70.5256 733.139L75.4318 745.793L88.8817 747.58L97.429 736.716L92.5262 724.065L79.0728 722.275L70.5256 733.139ZM201.297 482.023L206.289 494.916L219.998 496.736L228.704 485.67L223.703 472.781L210.003 470.957L201.297 482.023ZM290.209 386.45L285.189 373.5L271.414 371.664L262.664 382.786L267.691 395.741L281.459 397.572L290.209 386.45ZM320.326 162.221L325.178 174.724L338.472 176.497L346.919 165.76L342.073 153.25L328.774 151.484L320.326 162.221ZM125.726 686.781L129.94 697.637L141.483 699.177L148.817 689.855L144.606 678.996L133.061 677.459L125.726 686.781ZM74.4564 706.808L79.4141 719.589L93.0025 721.399L101.639 710.422L96.6783 697.645L83.0927 695.831L74.4564 706.808ZM109.561 939.724L113.791 950.644L125.404 952.188L132.78 942.813L128.546 931.89L116.937 930.348L109.561 939.724ZM114.012 926.891L109.131 914.297L95.7455 912.52L87.2428 923.328L92.1257 935.912L105.509 937.698L114.012 926.891ZM132.992 956.268L136.175 964.47L144.892 965.631L150.432 958.589L147.252 950.391L138.531 949.227L132.992 956.268ZM62.3359 785.748L67.2564 798.448L80.7576 800.241L89.3327 789.341L84.4093 776.645L70.9109 774.848L62.3359 785.748ZM66.4529 759.444L71.3591 772.098L84.8125 773.888L93.3569 763.027L88.448 750.377L74.9973 748.583L66.4529 759.444ZM97.658 884.435L92.7375 871.736L79.2363 869.942L70.6613 880.842L75.5818 893.542L89.083 895.335L97.658 884.435ZM85.4662 815.683L80.4681 802.79L66.7613 800.967L58.0555 812.033L63.0564 824.922L76.7603 826.748L85.4662 815.683ZM343.187 192.115L338.214 179.283L324.579 177.475L315.917 188.485L320.886 201.308L334.526 203.124L343.187 192.115ZM114.373 765.826L118.27 775.877L128.952 777.296L135.741 768.667L131.847 758.618L121.162 757.197L114.373 765.826ZM200.407 857.834L201.411 860.415L204.153 860.781L205.897 858.563L204.897 855.984L202.151 855.616L200.407 857.834ZM177.168 841.315L179.153 846.437L184.598 847.16L188.053 842.767L186.072 837.641L180.624 836.922L177.168 841.315ZM226.791 847.92L227.148 848.836L228.116 848.963L228.734 848.177L228.384 847.266L227.408 847.134L226.791 847.92ZM180.554 814.91L182.787 820.675L188.919 821.491L192.809 816.547L190.572 810.779L184.444 809.966L180.554 814.91ZM158.367 798.531L161.203 805.846L168.976 806.878L173.912 800.604L171.08 793.292L163.303 792.258L158.367 798.531ZM136.287 782.167L139.685 790.927L148.995 792.165L154.91 784.647L151.515 775.89L142.202 774.649L136.287 782.167ZM150.913 851.243L153.495 857.907L160.579 858.849L165.078 853.13L162.493 846.47L155.412 845.525L150.913 851.243ZM154.674 824.894L157.373 831.85L164.765 832.833L169.462 826.864L166.769 819.907L159.37 818.924L154.674 824.894ZM197.951 884.357L198.365 885.422L199.491 885.568L200.206 884.659L199.798 883.6L198.666 883.448L197.951 884.357ZM132.42 808.508L135.744 817.072L144.849 818.286L150.636 810.93L147.312 802.367L138.207 801.152L132.42 808.508ZM110.445 792.153L114.292 802.068L124.831 803.471L131.525 794.962L127.681 785.05L117.139 783.644L110.445 792.153ZM173.821 867.72L175.542 872.155L180.256 872.783L183.253 868.974L181.532 864.54L176.818 863.912L173.821 867.72ZM203.183 831.351L204.653 835.152L208.697 835.688L211.262 832.428L209.789 828.624L205.749 828.09L203.183 831.351ZM187.541 762.139L190.194 768.996L197.484 769.961L202.11 764.08L199.454 757.226L192.168 756.258L187.541 762.139ZM165.704 745.806L168.832 753.878L177.414 755.019L182.865 748.091L179.739 740.015L171.154 738.878L165.704 745.806ZM209.445 778.478L211.601 784.051L217.527 784.837L221.289 780.055L219.127 774.484L213.207 773.697L209.445 778.478ZM231.484 794.838L233.096 798.998L237.522 799.589L240.332 796.017L238.714 791.858L234.294 791.267L231.484 794.838ZM143.815 729.468L147.437 738.803L157.359 740.123L163.666 732.106L160.046 722.776L150.123 721.45L143.815 729.468ZM254.229 811.296L255.041 813.383L257.257 813.678L258.667 811.885L257.862 809.797L255.64 809.503L254.229 811.296ZM128.486 834.836L131.758 843.273L140.728 844.467L146.429 837.221L143.157 828.784L134.187 827.59L128.486 834.836ZM140.128 755.829L143.607 764.807L153.15 766.075L159.216 758.365L155.735 749.391L146.194 748.12L140.128 755.829ZM121.991 713.133L126.08 723.679L137.292 725.171L144.412 716.121L140.322 705.575L129.111 704.083L121.991 713.133ZM118.176 739.48L122.175 749.778L133.121 751.238L140.079 742.393L136.086 732.095L125.134 730.635L118.176 739.48ZM162.039 772.168L165.022 779.857L173.193 780.944L178.385 774.345L175.405 766.659L167.23 765.569L162.039 772.168ZM206.191 804.901L208.052 809.703L213.158 810.382L216.402 806.258L214.538 801.459L209.435 800.777L206.191 804.901ZM183.946 788.511L186.429 794.918L193.24 795.822L197.564 790.327L195.079 783.923L188.27 783.015L183.946 788.511ZM228.823 821.338L229.927 824.17L232.935 824.573L234.849 822.14L233.749 819.311L230.737 818.905L228.823 821.338ZM112.426 778.992L108.057 767.722L96.076 766.128L88.4636 775.804L92.8354 787.07L104.814 788.668L112.426 778.992ZM291.895 346.399L296.722 358.841L309.947 360.601L318.35 349.921L313.527 337.481L300.297 335.718L291.895 346.399ZM295.692 320.054L300.615 332.75L314.117 334.55L322.695 323.647L317.768 310.948L304.269 309.151L295.692 320.054ZM247.973 501.665L243.439 489.973L231.005 488.316L223.109 498.352L227.646 510.047L240.077 511.702L247.973 501.665ZM120.817 726.404L116.354 714.905L104.132 713.277L96.3641 723.151L100.821 734.65L113.049 736.277L120.817 726.404ZM313.96 376.188L309.248 364.047L296.343 362.328L288.143 372.75L292.849 384.891L305.761 386.61L313.96 376.188ZM116.585 752.691L112.182 741.344L100.114 739.733L92.4457 749.48L96.8518 760.83L108.917 762.438L116.585 752.691ZM257.252 449.192L252.3 436.433L238.737 434.625L230.115 445.585L235.061 458.345L248.63 460.151L257.252 449.192ZM108.415 805.311L104.024 793.984L91.982 792.382L84.3335 802.104L88.7272 813.427L100.767 815.032L108.415 805.311ZM226.632 471.971L231.367 484.175L244.343 485.904L252.587 475.425L247.852 463.221L234.876 461.492L226.632 471.971ZM258.983 409.147L263.863 421.735L277.249 423.518L285.752 412.71L280.869 400.12L267.486 398.339L258.983 409.147ZM309.429 402.436L304.887 390.726L292.44 389.07L284.53 399.124L289.069 410.831L301.519 412.49L309.429 402.436ZM276.517 465.184L272.035 453.625L259.739 451.984L251.929 461.911L256.418 473.476L268.707 475.111L276.517 465.184ZM281.135 438.947L276.449 426.873L263.611 425.16L255.456 435.526L260.139 447.604L272.98 449.313L281.135 438.947ZM120.001 887.408L123.396 896.165L132.713 897.409L138.628 889.89L135.226 881.128L125.916 879.889L120.001 887.408ZM104.529 831.648L100.069 820.146L87.8407 818.518L80.0753 828.389L84.5355 839.89L96.7639 841.518L104.529 831.648ZM167.316 920.561L168.442 923.457L171.517 923.867L173.473 921.381L172.351 918.488L169.272 918.075L167.316 920.561ZM142.906 903.882L145.44 910.416L152.386 911.341L156.799 905.732L154.265 899.198L147.319 898.273L142.906 903.882ZM147.046 877.585L149.557 884.055L156.433 884.97L160.804 879.414L158.296 872.946L151.417 872.029L147.046 877.585ZM170.522 894.136L171.963 897.846L175.904 898.37L178.411 895.184L176.974 891.477L173.029 890.95L170.522 894.136ZM124.385 861.142L127.669 869.606L136.665 870.803L142.382 863.535L139.102 855.074L130.102 853.874L124.385 861.142ZM102.121 844.748L106.031 854.838L116.755 856.261L123.566 847.604L119.656 837.52L108.932 836.09L102.121 844.748ZM92.7454 897.209L97.1082 908.451L109.058 910.042L116.653 900.388L112.294 889.148L100.341 887.554L92.7454 897.209ZM75.4807 854.632L80.1324 866.622L92.8806 868.321L100.98 858.027L96.331 846.033L83.58 844.337L75.4807 854.632ZM106.376 818.467L110.22 828.379L120.759 829.782L127.456 821.269L123.611 811.357L113.073 809.954L106.376 818.467ZM115.246 913.628L118.893 923.031L128.886 924.36L135.236 916.289L131.595 906.886L121.595 905.558L115.246 913.628ZM97.6798 871.009L101.726 881.446L112.818 882.919L119.866 873.961L115.821 863.53L104.727 862.051L97.6798 871.009ZM138.497 930.146L141.154 937.006L148.44 937.968L153.067 932.087L150.414 925.236L143.124 924.265L138.497 930.146ZM164.337 947.011L165.059 948.885L167.05 949.146L168.31 947.544L167.585 945.673L165.597 945.409L164.337 947.011ZM632.851 311.227L633.057 311.761L633.621 311.833L633.977 311.38L633.772 310.852L633.208 310.774L632.851 311.227ZM313.053 201.524L310.093 193.899L301.985 192.816L296.829 199.369L299.787 206.998L307.898 208.077L313.053 201.524ZM290.876 158.294L289.998 156.035L287.596 155.714L286.066 157.659L286.943 159.918L289.345 160.239L290.876 158.294ZM297.465 132.321L295.667 127.694L290.747 127.035L287.62 131.01L289.415 135.641L294.338 136.296L297.465 132.321ZM285.646 184.45L285.189 183.283L283.944 183.111L283.151 184.119L283.608 185.292L284.853 185.458L285.646 184.45ZM318.732 175.429L315.186 166.29L305.465 164.991L299.285 172.846L302.835 181.988L312.553 183.284L318.732 175.429ZM339.39 218.46L334.318 205.377L320.409 203.527L311.573 214.759L316.645 227.841L330.554 229.692L339.39 218.46ZM272.078 115.514L272.048 115.445L271.974 115.432L271.921 115.499L271.951 115.568L272.025 115.581L272.078 115.514ZM289.805 64.173L286.28 55.0846L276.621 53.8003L270.483 61.6019L274.005 70.6876L283.667 71.9746L289.805 64.173ZM325.855 149.532L321.197 137.514L308.424 135.818L300.311 146.131L304.971 158.139L317.742 159.844L325.855 149.532ZM240.327 30.7371L239.864 29.5426L238.597 29.3763L237.796 30.3949L238.255 31.5867L239.525 31.7556L240.327 30.7371ZM306.069 106.615L302.619 97.7226L293.164 96.4621L287.155 104.101L290.605 112.993L300.059 114.254L306.069 106.615ZM279.402 89.637L278.185 86.5094L274.855 86.0599L272.738 88.7512L273.956 91.8849L277.285 92.3282L279.402 89.637ZM264.248 47.3409L262.553 42.9731L257.909 42.3541L254.957 46.1064L256.649 50.4776L261.296 51.0931L264.248 47.3409ZM265.754 342.918L263.644 337.473L257.859 336.706L254.183 341.378L256.29 346.82L262.079 347.589L265.754 342.918ZM270.333 289.826L269.524 287.735L267.298 287.439L265.89 289.228L266.703 291.321L268.925 291.616L270.333 289.826ZM301.376 280.532L298.218 272.391L289.566 271.24L284.074 278.221L287.225 286.364L295.884 287.513L301.376 280.532ZM273.567 263.4L273.058 262.101L271.679 261.914L270.8 263.032L271.303 264.332L272.688 264.518L273.567 263.4ZM297.494 333.719L292.788 321.571L279.866 319.851L271.664 330.276L276.38 342.426L289.292 344.145L297.494 333.719ZM299.055 307.076L295.259 297.287L284.856 295.904L278.248 304.304L282.04 314.089L292.447 315.475L299.055 307.076ZM267.742 316.329L266.389 312.848L262.694 312.358L260.343 315.346L261.687 318.825L265.391 319.317L267.742 316.329ZM331.246 271.082L326.171 257.997L312.265 256.149L303.431 267.377L308.497 280.461L322.412 282.31L331.246 271.082ZM308.497 227.775L305.711 220.596L298.085 219.583L293.241 225.74L296.018 232.917L303.654 233.932L308.497 227.775ZM281.154 210.705L280.855 209.927L280.025 209.817L279.499 210.486L279.801 211.267L280.628 211.374L281.154 210.705ZM304.425 254.08L301.643 246.91L294.016 245.891L289.166 252.055L291.952 259.228L299.575 260.244L304.425 254.08ZM335.389 244.781L330.284 231.632L316.311 229.771L307.433 241.056L312.525 254.206L326.51 256.066L335.389 244.781ZM326.969 297.363L321.971 284.477L308.267 282.65L299.561 293.716L304.56 306.608L318.263 308.429L326.969 297.363ZM549.511 248.872L552.247 249.238L553.777 247.293L550.042 244.354L548.512 246.299L549.511 248.872ZM277.111 237.022L276.8 236.217L275.944 236.104L275.401 236.794L275.712 237.599L276.568 237.712L277.111 237.022ZM437.598 191.257L440.103 197.722L446.982 198.639L451.35 193.087L448.839 186.617L441.967 185.705L437.598 191.257ZM561.043 315.096L561.995 317.545L564.596 317.891L566.248 315.791L565.3 313.344L562.696 312.996L561.043 315.096ZM522.942 256.322L524.291 259.793L527.983 260.287L530.328 257.306L528.982 253.831L525.288 253.341L522.942 256.322ZM416.233 174.986L419.041 182.222L426.735 183.248L431.623 177.035L428.818 169.795L421.121 168.772L416.233 174.986ZM501.653 240.06L503.274 244.237L507.716 244.829L510.537 241.243L508.919 237.062L504.475 236.474L501.653 240.06ZM480.384 223.801L482.271 228.67L487.44 229.353L490.726 225.176L488.843 220.317L483.67 219.625L480.384 223.801ZM624.444 363.814L624.743 364.593L625.573 364.702L626.096 364.037L625.794 363.256L624.967 363.149L624.444 363.814ZM582.242 331.345L582.951 333.179L584.901 333.436L586.136 331.866L585.427 330.032L583.478 329.775L582.242 331.345ZM544.157 272.572L545.261 275.41L548.279 275.815L550.199 273.374L549.095 270.536L546.077 270.131L544.157 272.572ZM394.806 158.707L397.934 166.779L406.52 167.923L411.973 160.991L408.838 152.92L400.259 151.776L394.806 158.707ZM373.261 142.415L376.759 151.431L386.342 152.707L392.432 144.965L388.94 135.948L379.351 134.674L373.261 142.415ZM351.719 126.12L355.581 136.08L366.17 137.489L372.898 128.938L369.033 118.981L358.446 117.569L351.719 126.12ZM570.437 264.545L572.569 264.825L573.905 263.128L570.994 260.838L569.659 262.536L570.437 264.545ZM603.351 347.58L603.854 348.88L605.233 349.06L606.106 347.95L605.607 346.652L604.225 346.47L603.351 347.58ZM565.321 288.815L566.198 291.068L568.594 291.39L570.118 289.452L569.242 287.199L566.846 286.877L565.321 288.815ZM423.506 155.419L430.584 156.361L433.494 152.662L423.831 145.06L420.921 148.759L423.506 155.419ZM444.568 170.918L450.825 171.753L453.476 168.383L444.928 161.658L442.277 165.028L444.568 170.918ZM486.587 202.042L491.373 202.68L493.551 199.911L487.023 194.775L484.844 197.544L486.587 202.042ZM528.575 233.214L531.929 233.66L533.657 231.464L529.076 227.86L527.348 230.056L528.575 233.214ZM507.605 217.598L511.639 218.132L513.578 215.667L508.075 211.338L506.136 213.802L507.605 217.598ZM465.581 186.471L471.094 187.207L473.507 184.141L465.984 178.223L463.572 181.289L465.581 186.471ZM628.645 337.524L628.899 338.182L629.594 338.271L630.037 337.709L629.789 337.05L629.088 336.962L628.645 337.524ZM607.555 321.286L608.006 322.46L609.257 322.625L610.047 321.621L609.592 320.445L608.345 320.282L607.555 321.286ZM586.478 305.054L587.125 306.731L588.912 306.968L590.041 305.533L589.39 303.852L587.607 303.618L586.478 305.054ZM381.423 124.361L390.076 125.517L393.485 121.185L381.678 111.896L378.269 116.228L381.423 124.361ZM402.452 139.902L410.335 140.951L413.498 136.93L402.744 128.47L399.58 132.491L402.452 139.902ZM360.332 108.906L369.853 110.174L373.537 105.492L360.546 95.2709L356.862 99.9532L360.332 108.906ZM339.273 93.4034L349.609 94.7793L353.551 89.7681L339.445 78.6701L335.503 83.6813L339.273 93.4034ZM459.022 207.533L461.21 213.171L467.197 213.965L471 209.13L468.822 203.495L462.825 202.699L459.022 207.533ZM48.6775 676.525L48.056 674.913L46.3403 674.686L45.2524 676.069L45.8802 677.679L47.5896 677.907L48.6775 676.525ZM76.8838 693.706L73.4658 684.879L64.0825 683.635L58.1228 691.21L61.5464 700.029L70.9241 701.281L76.8838 693.706ZM79.2499 667.169L76.4499 659.951L68.7754 658.928L63.9008 665.124L66.7008 672.343L74.3753 673.365L79.2499 667.169ZM41.6941 729.298L40.6457 726.596L37.7722 726.213L35.947 728.533L36.9954 731.236L39.8689 731.618L41.6941 729.298ZM45.3654 702.936L44.4646 700.606L41.989 700.279L40.4198 702.274L41.3206 704.603L43.7962 704.93L45.3654 702.936ZM74.0465 720.181L70.1763 710.203L59.5639 708.787L52.8251 717.352L56.6988 727.334L67.3077 728.746L74.0465 720.181ZM106.032 684.157L100.957 671.078L87.0474 669.221L78.2108 680.453L83.2837 693.542L97.1953 695.389L106.032 684.157ZM83.4781 614.025L82.1094 610.487L78.3479 609.989L75.9579 613.027L77.3322 616.559L81.0881 617.063L83.4781 614.025ZM285.657 371.584L294.624 360.186L289.474 346.91L275.364 345.033L266.396 356.431L271.543 369.703L285.657 371.584ZM81.5709 640.626L79.4125 635.057L73.489 634.267L69.7273 639.048L71.8892 644.62L77.8093 645.407L81.5709 640.626ZM51.8934 650.101L51.5792 649.293L50.7265 649.183L50.184 649.873L50.4913 650.676L51.3509 650.791L51.8934 650.101ZM70.5254 746.559L66.4541 736.062L55.2936 734.576L48.2015 743.59L52.2699 754.091L63.4333 755.574L70.5254 746.559ZM110.303 657.877L105.156 644.598L91.0426 642.724L82.078 654.119L87.2215 667.395L101.339 669.272L110.303 657.877ZM102.127 944.342L93.3592 943.175L89.9147 947.553L101.881 956.967L105.325 952.589L102.127 944.342ZM37.4905 755.592L36.4937 753.016L33.7517 752.65L32.0127 754.861L33.013 757.44L35.7516 757.802L37.4905 755.592ZM74.8202 867.968L70.7353 857.432L59.5332 855.941L52.4189 864.984L56.5038 875.521L67.7059 877.011L74.8202 867.968ZM39.9985 876.758L39.6362 875.826L38.6452 875.693L38.0136 876.496L38.3758 877.428L39.3669 877.56L39.9985 876.758ZM125.429 956.994L112.318 955.245L107.491 961.38L125.384 975.458L130.211 969.322L125.429 956.994ZM113.919 604.652L110.424 595.639L100.838 594.361L94.7476 602.102L98.2459 611.118L107.829 612.394L113.919 604.652ZM65.1292 893.529L63.0936 888.28L57.5133 887.537L53.9659 892.046L56.0015 897.295L61.5817 898.038L65.1292 893.529ZM92.1077 910.551L87.725 899.242L75.7021 897.644L68.0675 907.348L72.453 918.654L84.4731 920.255L92.1077 910.551ZM32.8026 781.819L32.0259 779.823L29.9026 779.538L28.5532 781.253L29.3299 783.25L31.4532 783.534L32.8026 781.819ZM65.9052 772.8L62.0378 762.818L51.4191 761.403L44.6776 769.972L48.5519 779.959L59.1636 781.369L65.9052 772.8ZM60.3964 798.919L57.0497 790.286L47.8747 789.068L42.0458 796.477L45.389 805.108L54.5674 806.328L60.3964 798.919ZM81.8045 842.047L76.6548 828.772L62.5404 826.892L53.5759 838.286L58.7228 851.565L72.84 853.442L81.8045 842.047ZM54.0952 824.931L51.5614 818.397L44.615 817.473L40.2023 823.081L42.736 829.615L49.6824 830.54L54.0952 824.931ZM47.1814 850.861L45.6809 847.007L41.5852 846.459L38.9782 849.772L40.4697 853.631L44.5744 854.175L47.1814 850.861ZM27.6689 807.988L27.2868 806.989L26.2223 806.85L25.549 807.706L25.9374 808.704L26.9956 808.844L27.6689 807.988ZM112.964 631.377L108.33 619.429L95.6298 617.74L87.5612 627.996L92.1894 639.945L104.895 641.633L112.964 631.377ZM203.654 468.91L200.296 460.263L191.105 459.037L185.264 466.461L188.613 475.113L197.814 476.334L203.654 468.91ZM204.723 415.349L203.95 413.348L201.827 413.07L200.477 414.785L201.251 416.779L203.374 417.064L204.723 415.349ZM233.516 405.755L231.221 399.827L224.916 398.989L220.909 404.082L223.211 410.009L229.509 410.847L233.516 405.755ZM175.524 451.738L174.936 450.227L173.332 450.013L172.311 451.311L172.893 452.823L174.503 453.036L175.524 451.738ZM224.245 470.877L233.254 459.426L228.082 446.087L213.897 444.197L204.888 455.648L210.061 468.993L224.245 470.877ZM203.663 442.059L201.792 437.233L196.658 436.548L193.397 440.693L195.271 445.522L200.402 446.204L203.663 442.059ZM233.273 432.577L229.574 423.048L219.446 421.699L213.011 429.879L216.703 439.408L226.838 440.757L233.273 432.577ZM236.59 352.465L236.14 351.297L234.902 351.137L234.12 352.131L234.568 353.296L235.808 353.459L236.59 352.465ZM264.488 369.598L261.356 361.523L252.767 360.377L247.308 367.316L250.441 375.397L259.029 376.537L264.488 369.598ZM206.75 388.768L206.719 388.693L206.646 388.686L206.599 388.746L206.622 388.816L206.702 388.828L206.75 388.768ZM234.635 379.056L233.411 375.9L230.06 375.457L227.932 378.162L229.154 381.311L232.506 381.761L234.635 379.056ZM252.877 434.293L261.802 422.948L256.679 409.739L242.631 407.865L233.706 419.21L238.833 432.422L252.877 434.293ZM264.117 396.405L259.634 384.84L247.342 383.207L239.532 393.134L244.017 404.69L256.307 406.332L264.117 396.405ZM87.9438 560.914L87.9108 560.842L87.8367 560.83L87.7839 560.897L87.8134 560.966L87.8909 560.981L87.9438 560.914ZM115.896 551.209L114.651 547.996L111.232 547.539L109.059 550.301L110.305 553.52L113.723 553.971L115.896 551.209ZM174.628 478.475L172.884 473.977L168.099 473.339L165.061 477.2L166.808 481.701L171.589 482.337L174.628 478.475ZM85.5749 587.454L84.9245 585.78L83.1445 585.542L82.0121 586.982L82.6597 588.659L84.4425 588.894L85.5749 587.454ZM114.736 577.91L112.425 571.953L106.095 571.112L102.074 576.222L104.382 582.177L110.716 583.021L114.736 577.91ZM145.195 541.688L142.238 534.059L134.134 532.985L128.987 539.528L131.938 547.151L140.048 548.23L145.195 541.688ZM134.071 606.439L142.994 595.097L137.867 581.886L123.823 580.015L114.9 591.357L120.021 604.569L134.071 606.439ZM145.382 568.561L140.871 556.939L128.51 555.287L120.656 565.271L125.167 576.899L137.527 578.544L145.382 568.561ZM146.74 488.19L146.192 486.763L144.679 486.569L143.722 487.785L144.269 489.207L145.783 489.407L146.74 488.19ZM453.208 555.836L454.677 559.631L458.707 560.163L461.267 556.909L459.802 553.117L455.767 552.582L453.208 555.836ZM195.534 507.272L204.498 495.878L199.355 482.602L185.238 480.724L176.273 492.119L181.423 505.394L195.534 507.272ZM117.521 524.576L117.164 523.659L116.196 523.533L115.578 524.318L115.929 525.23L116.904 525.361L117.521 524.576ZM143.72 554.915L148.793 567.998L162.705 569.851L171.541 558.619L166.466 545.534L152.557 543.683L143.72 554.915ZM175.566 532.305L170.511 519.265L156.643 517.418L147.837 528.611L152.896 541.654L166.76 543.498L175.566 532.305ZM145.602 514.886L143.984 510.711L139.539 510.116L136.715 513.706L138.339 517.886L142.778 518.475L145.602 514.886ZM174.747 505.341L171.471 496.901L162.505 495.709L156.807 502.952L160.072 511.39L169.049 512.584L174.747 505.341ZM511.342 483.016L512.535 486.089L515.796 486.519L517.866 483.888L516.68 480.82L513.412 480.384L511.342 483.016ZM490.031 466.753L491.5 470.548L495.534 471.083L498.094 467.829L496.625 464.034L492.591 463.5L490.031 466.753ZM468.624 450.478L470.408 455.088L475.311 455.739L478.422 451.785L476.632 447.177L471.734 446.524L468.624 450.478ZM343.149 326.37L347.233 336.9L358.433 338.394L365.55 329.348L361.462 318.815L350.266 317.324L343.149 326.37ZM408.199 375.308L411.036 382.614L418.804 383.652L423.743 377.375L420.908 370.066L413.137 369.031L408.199 375.308ZM364.826 342.679L368.495 352.145L378.562 353.487L384.956 345.36L381.28 335.895L371.219 334.553L364.826 342.679ZM386.528 358.992L389.774 367.369L398.68 368.552L404.334 361.366L401.087 352.989L392.181 351.806L386.528 358.992ZM339.26 352.705L343.282 363.066L354.295 364.533L361.295 355.635L357.277 345.277L346.26 343.807L339.26 352.705ZM447.175 434.199L449.294 439.662L455.098 440.432L458.788 435.743L456.672 430.283L450.864 429.51L447.175 434.199ZM361.017 369.026L364.597 378.243L374.391 379.548L380.615 371.637L377.045 362.421L367.241 361.115L361.017 369.026ZM382.661 385.333L385.833 393.514L394.534 394.674L400.059 387.65L396.884 379.467L388.187 378.309L382.661 385.333ZM425.739 417.918L428.185 424.222L434.884 425.113L439.141 419.702L436.698 413.401L429.996 412.507L425.739 417.918ZM404.274 401.638L407.053 408.811L414.683 409.827L419.53 403.666L416.747 396.49L409.121 395.477L404.274 401.638ZM390.501 332.672L393.786 341.142L402.784 342.335L408.499 335.071L405.221 326.607L396.216 325.408L390.501 332.672ZM486.097 493.081L487.518 496.752L491.417 497.267L493.89 494.123L492.47 490.457L488.57 489.937L486.097 493.081ZM412.143 348.982L415.025 356.409L422.924 357.465L427.946 351.081L425.063 343.649L417.165 342.599L412.143 348.982ZM368.821 316.359L372.521 325.901L382.661 327.248L389.102 319.061L385.406 309.523L375.262 308.172L368.821 316.359ZM433.639 365.265L436.173 371.798L443.119 372.723L447.529 367.118L444.996 360.584L438.049 359.659L433.639 365.265ZM476.544 397.828L478.411 402.652L483.538 403.331L486.791 399.197L484.924 394.373L479.796 393.694L476.544 397.828ZM455.108 381.554L457.301 387.213L463.321 388.015L467.147 383.153L464.95 377.491L458.934 376.691L455.108 381.554ZM493.988 440.426L495.5 444.335L499.653 444.883L502.285 441.537L500.773 437.634L496.62 437.08L493.988 440.426ZM451.129 407.875L453.293 413.443L459.214 414.236L462.979 409.451L460.817 403.88L454.893 403.09L451.129 407.875ZM472.607 424.16L474.428 428.85L479.415 429.516L482.584 425.488L480.763 420.797L475.776 420.132L472.607 424.16ZM536.54 472.947L537.515 475.466L540.196 475.823L541.899 473.659L540.918 471.141L538.243 470.782L536.54 472.947ZM429.699 391.593L432.182 398.007L438.999 398.911L443.329 393.408L440.843 386.998L434.028 386.091L429.699 391.593ZM515.322 456.694L516.543 459.859L519.903 460.299L522.034 457.59L520.814 454.431L517.453 453.985L515.322 456.694ZM347.08 300.04L351.216 310.703L362.557 312.216L369.76 303.06L365.62 292.394L354.283 290.884L347.08 300.04ZM337.592 365.907L333.244 354.682L321.311 353.098L313.732 362.731L318.083 373.952L330.013 375.54L337.592 365.907ZM435.642 513.223L437.514 518.04L442.636 518.726L445.895 514.585L444.022 509.768L438.9 509.082L435.642 513.223ZM478.36 545.76L479.632 549.039L483.121 549.506L485.339 546.687L484.064 543.406L480.578 542.942L478.36 545.76ZM457.02 529.492L458.587 533.525L462.872 534.096L465.596 530.634L464.032 526.604L459.744 526.03L457.02 529.492ZM331.66 405.395L335.485 415.246L345.953 416.639L352.606 408.183L348.788 398.338L338.313 396.939L331.66 405.395ZM414.208 496.939L416.405 502.601L422.422 503.4L426.242 498.545L424.051 492.882L418.029 492.083L414.208 496.939ZM309.955 389.08L314.201 400.029L325.839 401.576L333.234 392.176L328.989 381.233L317.35 379.68L309.955 389.08ZM392.738 480.659L395.274 487.189L402.214 488.115L406.63 482.503L404.099 475.972L397.153 475.047L392.738 480.659ZM306.223 415.435L310.343 426.062L321.641 427.565L328.816 418.444L324.699 407.813L313.398 406.314L306.223 415.435ZM431.836 539.566L433.606 544.136L438.468 544.783L441.553 540.861L439.783 536.285L434.921 535.644L431.836 539.566ZM349.544 448.058L352.847 456.576L361.907 457.784L367.664 450.467L364.36 441.942L355.301 440.741L349.544 448.058ZM371.202 464.363L374.101 471.832L382.042 472.892L387.086 466.48L384.19 459.008L376.246 457.952L371.202 464.363ZM353.334 421.708L356.741 430.491L366.08 431.735L372.015 424.192L368.608 415.408L359.269 414.164L353.334 421.708ZM327.922 431.751L331.621 441.285L341.759 442.637L348.2 434.45L344.503 424.911L334.363 423.564L327.922 431.751ZM400.407 427.973L403.112 434.956L410.536 435.942L415.252 429.948L412.544 422.968L405.123 421.979L400.407 427.973ZM375.033 438.023L378.017 445.719L386.198 446.807L391.398 440.198L388.415 432.503L380.234 431.414L375.033 438.023ZM357.159 395.362L360.655 404.382L370.24 405.654L376.33 397.912L372.836 388.899L363.249 387.621L357.159 395.362ZM507.45 509.354L508.57 512.256L511.662 512.667L513.621 510.178L512.494 507.27L509.409 506.864L507.45 509.354ZM464.738 476.815L466.459 481.249L471.173 481.878L474.167 478.073L472.446 473.639L467.732 473.01L464.738 476.815ZM421.875 444.256L424.243 450.367L430.741 451.231L434.864 445.99L432.498 439.875L425.998 439.015L421.875 444.256ZM443.302 460.535L445.347 465.814L450.959 466.559L454.523 462.029L452.475 456.753L446.866 456.004L443.302 460.535ZM378.842 411.677L381.922 419.62L390.37 420.746L395.734 413.928L392.654 405.979L384.207 404.859L378.842 411.677ZM439.464 486.875L441.422 491.931L446.803 492.65L450.217 488.31L448.252 483.249L442.877 482.536L439.464 486.875ZM417.993 470.596L420.294 476.523L426.596 477.364L430.602 472.272L428.304 466.341L421.999 465.503L417.993 470.596ZM396.543 454.31L399.171 461.101L406.393 462.059L410.975 456.235L408.344 449.441L401.126 448.486L396.543 454.31ZM335.412 379.043L339.348 389.194L350.143 390.633L356.999 381.919L353.059 371.766L342.268 370.329L335.412 379.043ZM497.968 414.111L499.511 418.096L503.75 418.66L506.444 415.237L504.897 411.249L500.661 410.687L497.968 414.111ZM460.82 503.144L462.483 507.431L467.041 508.039L469.937 504.357L468.273 500.071L463.716 499.463L460.82 503.144ZM482.227 519.419L483.576 522.897L487.267 523.385L489.613 520.404L488.27 516.931L484.572 516.438L482.227 519.419ZM514.391 308.887L515.888 312.745L519.99 313.292L522.597 309.978L521.1 306.121L516.998 305.573L514.391 308.887ZM467.395 302.63L469.565 308.22L475.504 309.01L479.28 304.211L477.116 298.621L471.17 297.831L467.395 302.63ZM407.226 227.49L410.349 235.541L418.908 236.682L424.348 229.768L421.225 221.717L412.665 220.576L407.226 227.49ZM428.719 243.776L431.5 250.934L439.104 251.946L443.937 245.803L441.166 238.648L433.552 237.633L428.719 243.776ZM471.627 276.342L473.734 281.785L479.523 282.554L483.198 277.882L481.085 272.441L475.303 271.671L471.627 276.342ZM450.198 260.067L452.634 266.341L459.302 267.23L463.542 261.84L461.112 255.565L454.438 254.678L450.198 260.067ZM363.911 194.873L367.849 205.02L378.642 206.462L385.497 197.748L381.561 187.592L370.766 186.159L363.911 194.873ZM573.918 383.94L574.693 385.946L576.822 386.224L578.174 384.506L577.403 382.502L575.27 382.221L573.918 383.94ZM493.035 292.618L494.827 297.245L499.749 297.9L502.877 293.925L501.078 289.299L496.162 288.643L493.035 292.618ZM540.545 446.629L541.548 449.211L544.291 449.576L546.035 447.358L545.038 444.776L542.289 444.411L540.545 446.629ZM510.184 335.178L511.73 339.165L515.966 339.727L518.66 336.304L517.117 332.319L512.877 331.754L510.184 335.178ZM595.076 400.185L595.626 401.602L597.137 401.806L598.097 400.586L597.543 399.166L596.036 398.964L595.076 400.185ZM552.758 367.699L553.762 370.281L556.507 370.649L558.252 368.431L557.251 365.846L554.503 365.482L552.758 367.699ZM531.475 351.436L532.747 354.721L536.236 355.182L538.451 352.367L537.18 349.088L533.69 348.621L531.475 351.436ZM385.593 211.181L389.112 220.264L398.768 221.546L404.9 213.752L401.376 204.675L391.726 203.387L385.593 211.181ZM433.112 217.512L435.772 224.362L443.055 225.334L447.685 219.449L445.028 212.596L437.742 211.627L433.112 217.512ZM454.545 233.79L456.875 239.808L463.28 240.661L467.345 235.494L465.005 229.474L458.61 228.623L454.545 233.79ZM539.889 298.855L541.064 301.88L544.277 302.307L546.319 299.711L545.148 296.688L541.932 296.259L539.889 298.855ZM475.966 250.069L477.979 255.254L483.488 255.988L486.994 251.532L484.985 246.349L479.471 245.613L475.966 250.069ZM518.659 282.604L520.086 286.274L523.989 286.797L526.471 283.643L525.046 279.969L521.14 279.449L518.659 282.604ZM411.686 201.233L414.669 208.921L422.844 210.011L428.036 203.412L425.055 195.72L416.878 194.634L411.686 201.233ZM497.309 266.334L499.027 270.771L503.744 271.397L506.74 267.588L505.02 263.154L500.305 262.525L497.309 266.334ZM599.189 373.878L599.726 375.262L601.195 375.456L602.13 374.267L601.593 372.889L600.124 372.689L599.189 373.878ZM556.901 341.398L557.872 343.914L560.553 344.271L562.253 342.11L561.275 339.589L558.601 339.237L556.901 341.398ZM535.676 325.146L536.903 328.304L540.257 328.75L542.391 326.038L541.171 322.879L537.81 322.434L535.676 325.146ZM390.054 184.924L393.435 193.641L402.7 194.873L408.584 187.393L405.207 178.678L395.938 177.444L390.054 184.924ZM368.509 168.632L372.253 178.288L382.522 179.657L389.043 171.367L385.296 161.709L375.03 160.342L368.509 168.632ZM346.88 152.326L351.016 163.011L362.381 164.521L369.595 155.351L365.45 144.664L354.094 143.156L346.88 152.326ZM578.055 357.639L578.806 359.576L580.868 359.853L582.179 358.187L581.427 356.245L579.365 355.974L578.055 357.639ZM488.828 318.908L490.668 323.666L495.725 324.335L498.936 320.254L497.095 315.497L492.038 314.827L488.828 318.908ZM459.177 355.24L461.373 360.902L467.393 361.704L471.216 356.845L469.019 351.183L463 350.381L459.177 355.24ZM480.613 371.521L482.485 376.338L487.604 377.021L490.859 372.883L488.993 368.066L483.868 367.383L480.613 371.521ZM501.969 387.79L503.544 391.84L507.845 392.413L510.583 388.933L509.014 384.888L504.707 384.31L501.969 387.79ZM544.556 420.31L545.582 422.949L548.385 423.322L550.165 421.059L549.146 418.419L546.337 418.046L544.556 420.31ZM523.284 404.055L524.578 407.375L528.106 407.849L530.352 404.995L529.066 401.671L525.529 401.201L523.284 404.055ZM565.71 436.552L566.506 438.615L568.703 438.907L570.097 437.135L569.291 435.075L567.104 434.78L565.71 436.552ZM437.708 338.957L440.242 345.491L447.189 346.416L451.604 340.803L449.068 334.273L442.124 333.345L437.708 338.957ZM519.262 430.366L520.533 433.645L524.023 434.111L526.235 431.3L524.963 428.015L521.474 427.554L519.262 430.366ZM351.155 273.731L355.289 284.398L366.629 285.905L373.832 276.749L369.696 266.086L358.359 264.575L351.155 273.731ZM355.295 247.427L359.399 258.031L370.678 259.53L377.837 250.431L373.72 239.828L362.453 238.328L355.295 247.427ZM416.166 322.662L419.064 330.14L427.013 331.196L432.063 324.777L429.163 317.302L421.216 316.243L416.166 322.662ZM372.829 290.044L376.553 299.633L386.749 300.995L393.229 292.759L389.51 283.163L379.309 281.808L372.829 290.044ZM394.512 306.353L397.815 314.877L406.878 316.082L412.635 308.765L409.326 300.247L400.268 299.036L394.512 306.353ZM527.358 377.74L528.644 381.065L532.185 381.538L534.43 378.684L533.137 375.354L529.604 374.886L527.358 377.74ZM359.549 221.14L363.592 231.574L374.681 233.044L381.72 224.097L377.678 213.669L366.589 212.192L359.549 221.14ZM548.622 394L549.645 396.642L552.461 397.02L554.247 394.749L553.217 392.101L550.408 391.729L548.622 394ZM402.859 253.764L406.09 262.089L414.945 263.273L420.571 256.122L417.342 247.787L408.484 246.613L402.859 253.764ZM376.975 263.739L380.667 273.269L390.801 274.617L397.234 266.441L393.538 256.909L383.407 255.563L376.975 263.739ZM569.782 410.241L570.585 412.303L572.772 412.593L574.163 410.824L573.37 408.763L571.173 408.472L569.782 410.241ZM381.246 237.459L384.873 246.794L394.793 248.117L401.1 240.1L397.483 230.767L387.553 229.442L381.246 237.459ZM424.484 270.068L427.319 277.376L435.093 278.414L440.032 272.137L437.193 264.825L429.423 263.79L424.484 270.068ZM420.287 296.36L423.17 303.793L431.068 304.843L436.088 298.463L433.208 291.033L425.306 289.98L420.287 296.36ZM398.642 280.053L401.93 288.52L410.925 289.717L416.643 282.449L413.362 273.988L404.36 272.785L398.642 280.053ZM441.78 312.646L444.314 319.18L451.261 320.104L455.673 314.496L453.14 307.962L446.193 307.037L441.78 312.646ZM445.939 286.346L448.445 292.794L455.302 293.712L459.659 288.174L457.153 281.725L450.296 280.808L445.939 286.346ZM463.249 328.929L465.446 334.591L471.465 335.393L475.291 330.531L473.091 324.872L467.074 324.066L463.249 328.929ZM506.047 361.478L507.616 365.529L511.923 366.101L514.658 362.624L513.086 358.577L508.782 358.002L506.047 361.478ZM487.94 341.072L493.065 341.755L494.935 346.575L491.679 350.713L486.555 350.03L484.685 345.21L487.94 341.072Z" fill="url(#paint0_radial_231_1249)" fill-opacity="0.3"/>
<mask id="mask0_231_1249" style="mask-type:luminance" maskUnits="userSpaceOnUse" x="-282" y="-3" width="946" height="995">
<path d="M-282 654.954L235.572 -2.91859L663.156 333.477L145.584 991.35L-282 654.954Z" fill="white"/>
</mask>
<g mask="url(#mask0_231_1249)">
</g>
<defs>
<radialGradient id="paint0_radial_231_1249" cx="0" cy="0" r="1" gradientUnits="userSpaceOnUse" gradientTransform="translate(267.961 555.859) rotate(-108.416) scale(331.052 283.003)">
<stop stop-color="#FF4E27"/>
<stop offset="1" stop-color="#100F2C"/>
</radialGradient>
</defs>
</svg>
