<svg width="25" height="24" viewBox="0 0 25 24" fill="none" xmlns="http://www.w3.org/2000/svg">
<g id="radix-icons:reload">
<path id="Vector" fill-rule="evenodd" clip-rule="evenodd" d="M3.45999 12.0001C3.45999 7.46411 6.99599 2.96011 12.5 2.96011C16.9448 2.96011 19.1432 6.24971 20.0792 8.00011H17.3C17.0878 8.00011 16.8843 8.08439 16.7343 8.23442C16.5843 8.38445 16.5 8.58793 16.5 8.80011C16.5 9.01228 16.5843 9.21576 16.7343 9.36579C16.8843 9.51582 17.0878 9.60011 17.3 9.60011H22.1C22.3122 9.60011 22.5156 9.51582 22.6657 9.36579C22.8157 9.21576 22.9 9.01228 22.9 8.80011V4.00011C22.9 3.78793 22.8157 3.58445 22.6657 3.43442C22.5156 3.28439 22.3122 3.20011 22.1 3.20011C21.8878 3.20011 21.6843 3.28439 21.5343 3.43442C21.3843 3.58445 21.3 3.78793 21.3 4.00011V6.90091C20.1736 4.91371 17.5656 1.36011 12.5 1.36011C5.99919 1.36011 1.85999 6.69611 1.85999 12.0001C1.85999 17.3041 5.99919 22.6401 12.5 22.6401C15.6104 22.6401 18.1992 21.4081 20.0424 19.5329C21.0204 18.5353 21.7963 17.358 22.3272 16.0657C22.3671 15.9685 22.3875 15.8644 22.3872 15.7594C22.3869 15.6543 22.3659 15.5504 22.3254 15.4534C22.2849 15.3565 22.2257 15.2684 22.1512 15.1944C22.0767 15.1203 21.9884 15.0616 21.8912 15.0217C21.794 14.9818 21.6899 14.9614 21.5849 14.9617C21.4798 14.962 21.3758 14.983 21.2789 15.0235C21.1819 15.064 21.0939 15.1232 21.0198 15.1977C20.9458 15.2722 20.8871 15.3605 20.8472 15.4577C20.3951 16.5584 19.7344 17.5614 18.9016 18.4113C17.348 19.9953 15.164 21.0401 12.5 21.0401C6.99599 21.0401 3.45999 16.5361 3.45999 12.0001Z" fill="#100F2C"/>
</g>
</svg>
