<svg width="72" height="64" viewBox="0 0 72 64" fill="none" xmlns="http://www.w3.org/2000/svg">
<g id="Clip path group">
<mask id="mask0_231_341" style="mask-type:luminance" maskUnits="userSpaceOnUse" x="0" y="0" width="72" height="64">
<g id="e51da538d9">
<path id="Vector" d="M0.527832 0H71.6667V64H0.527832V0Z" fill="white"/>
</g>
</mask>
<g mask="url(#mask0_231_341)">
<g id="Group">
<path id="Vector_2" d="M31.6195 29.2793C32.0119 28.7556 32.762 28.6418 33.3045 29.0174C33.8469 29.3931 33.9623 30.133 33.5699 30.6567L24.3486 43.0082C24.1178 43.3042 23.7485 43.4863 23.3676 43.4863H12.1152C10.4186 43.4863 9.36839 44.6019 9.34531 46.0932C9.32222 47.5845 10.3378 48.666 12.1152 48.666H25.445C25.9182 48.7001 27.0608 47.7211 28.8035 45.6378C28.9881 45.4216 29.1035 45.2736 29.4151 44.9093C30.7885 43.2359 31.0655 42.9057 31.6541 42.2796C32.1042 41.8015 32.8659 41.7673 33.3622 42.1999C33.8469 42.6439 33.8815 43.3838 33.4314 43.862C32.9005 44.4312 32.6235 44.7613 31.2963 46.3664C30.9847 46.7421 30.8578 46.9015 30.6731 47.1177C28.3187 49.9296 26.9338 51.1249 25.3642 51.011H12.1152C8.94137 51.011 6.88707 48.8139 6.93323 46.0591C6.96786 43.3383 9.0337 41.1412 12.1152 41.1412H22.756L31.6195 29.2793ZM48.8271 47.6186C49.635 46.1274 49.3696 44.7044 48.1578 43.1903L40.9331 34.8232C40.5753 34.402 40.5638 33.7873 40.91 33.3547L47.4999 24.9762C48.4232 23.7012 49.9697 23.7467 50.8814 24.942L55.1055 30.3493C56.0749 31.5902 56.1441 31.6243 57.2982 31.6243L67.766 31.704C68.6662 31.704 69.1624 31.1576 69.1624 30.3721C69.1624 29.5752 68.6546 29.0288 67.766 29.0288H61.2107C59.2833 29.0288 58.2331 28.6759 57.1598 27.2643L52.2202 20.0925C50.4429 17.8271 47.6961 16.518 45.2263 16.518H31.4925C30.4308 16.5635 29.796 16.8139 29.3344 17.3262L22.9406 25.6137C22.4213 26.217 22.5829 26.9683 23.2638 27.4578C23.9909 27.9815 24.8795 27.8563 25.6412 26.8659L31.1001 19.8534C31.331 19.5688 31.6772 19.3981 32.058 19.3981H36.7206C39.075 19.4436 40.3329 21.7432 38.6595 23.7126L33.3737 30.873C32.2427 33.3091 32.6466 35.3582 34.02 37.1C34.5163 37.7375 35.0125 38.17 35.4511 38.4888L43.2413 45.8541C43.6106 46.1957 43.7145 46.7193 43.5067 47.1633L39.2019 56.794C37.5516 60.3458 41.6948 62.2127 43.7145 58.6154L48.8271 47.6186ZM50.0389 41.7104C51.8163 43.9303 52.2548 46.3095 50.9969 48.6546L45.8957 59.6172L45.8611 59.6855C42.3988 65.958 34.0431 62.19 36.9976 55.8378L40.9677 46.9698L33.9161 40.2874C33.4314 39.9573 32.7736 39.3653 32.1042 38.5229C30.2346 36.1437 29.646 33.1953 31.2848 29.7118L36.7437 22.2896C37.1361 21.8342 37.0899 21.7432 36.6975 21.7432H32.6582L27.5686 28.2775C26.0105 30.3038 23.6215 30.6226 21.8327 29.3476C20.09 28.1067 19.6168 25.83 21.0479 24.1679L27.4532 15.8577C28.4457 14.7535 29.7152 14.2412 31.4464 14.1729H45.2263C48.4463 14.1729 51.8971 15.8122 54.1822 18.7378L59.1333 25.921C59.6295 26.5699 59.9642 26.6837 61.2107 26.6837H67.766C70.0511 26.6837 71.563 28.3344 71.5745 30.3607C71.586 32.3984 70.0626 34.0491 67.7544 34.0491L57.2867 33.9694C55.3132 33.9694 54.5861 33.5482 53.1781 31.7609L49.1965 26.6724L43.4144 34.0377L50.0389 41.7104ZM54.2976 2.34507C51.4931 2.34507 49.2311 4.54216 49.2311 7.2629C49.2311 9.98364 51.4931 12.1807 54.2976 12.1807C57.0905 12.1807 59.3641 9.98364 59.3641 7.2629C59.3641 4.54216 57.0905 2.34507 54.2976 2.34507ZM54.2976 0C58.4293 0 61.7762 3.2444 61.7762 7.2629C61.7762 11.27 58.4293 14.5258 54.2976 14.5258C50.1659 14.5258 46.819 11.2814 46.819 7.2629C46.819 3.2444 50.1659 0 54.2976 0ZM12.1613 12.0669H23.4715C25.0873 12.0669 25.0873 14.412 23.4715 14.412H12.1613C10.5456 14.412 10.5456 12.0669 12.1613 12.0669ZM2.23604 21.9822H16.5007C18.1165 21.9822 18.1165 24.3273 16.5007 24.3273H2.23604C0.620295 24.3273 0.620295 21.9822 2.23604 21.9822ZM7.2333 31.7496H18.3819C19.9977 31.7496 19.9977 34.0946 18.3819 34.0946H7.2333C5.61756 34.0946 5.61756 31.7496 7.2333 31.7496ZM12.1613 14.412V12.0669H23.4715V14.412H12.1613ZM2.23604 24.3273V21.9822H16.5007V24.3273H2.23604Z" fill="#FF4E27"/>
</g>
</g>
</g>
</svg>
