<svg width="85" height="48" viewBox="0 0 85 48" fill="none" xmlns="http://www.w3.org/2000/svg">
<g id="Clip path group">
<mask id="mask0_231_331" style="mask-type:luminance" maskUnits="userSpaceOnUse" x="0" y="0" width="85" height="48">
<g id="e5a92dc5ff">
<path id="Vector" d="M0.248535 0H85V48H0.248535V0Z" fill="white"/>
</g>
</mask>
<g mask="url(#mask0_231_331)">
<g id="Group">
<path id="Vector_2" d="M79.8817 30.7497L72.693 29C62.9802 26.6386 53.5001 23.1515 44.4968 18.6243L35.3307 14.0115C34.9701 13.828 34.7258 13.4609 34.6677 13.0327L34.2257 9.55777C34.121 8.76246 33.6208 8.07727 32.9112 7.79586L14.0789 0.222061C13.5438 0.00182341 12.9389 0.0385269 12.4271 0.30771C11.9153 0.589128 11.5314 1.07855 11.3686 1.66586L9.90295 6.98831C9.48419 8.46881 8.89096 9.90037 8.1465 11.2218L4.19159 18.1594C2.71431 20.7411 1.65579 23.5308 1.03929 26.4795C0.82991 27.4706 0.667063 28.4861 0.539109 29.5017C0.539109 29.5139 0.539109 29.5384 0.539109 29.5629C0.364627 30.9577 0.283203 32.377 0.283203 33.7841C0.283203 36.9042 1.70232 39.8285 4.0869 41.6271C4.9942 42.3001 5.62234 43.3034 5.87824 44.4535L6.44822 47.0719C6.57617 47.6225 7.02982 48.0141 7.5649 48.0141H10.2752C10.8103 48.0141 11.2755 47.6225 11.3919 47.0719L11.9153 44.6982C11.9502 44.5147 12.0549 44.3679 12.1945 44.2578C13.6136 43.2544 15.4398 43.2544 16.8589 44.2578C16.9985 44.3679 17.1032 44.5147 17.1381 44.6982L17.6616 47.0719C17.7895 47.6225 18.2432 48.0141 18.7782 48.0141H21.4885C22.0236 48.0141 22.4773 47.6225 22.6052 47.0719L23.0938 44.8206C23.1403 44.6003 23.2799 44.429 23.4776 44.3312L24.4663 43.8417C28.4445 41.8963 32.981 41.468 37.2268 42.6549L45.7996 45.0286C46.0206 45.0898 46.1835 45.2733 46.23 45.4935L46.579 47.0719C46.6953 47.6225 47.1606 48.0141 47.6956 48.0141H50.4059C50.941 48.0141 51.3946 47.6225 51.5226 47.0719L51.825 45.6771C51.8948 45.3345 52.1391 45.0653 52.4648 44.9796C54.6167 44.3679 56.9083 44.3679 59.0602 44.9796C59.3743 45.0653 59.6302 45.3345 59.7 45.6771L60.0024 47.0719C60.1304 47.6225 60.584 48.0141 61.1191 48.0141H63.8294C64.3644 48.0141 64.8181 47.6225 64.946 47.0719L65.295 45.5058C65.3415 45.2733 65.5044 45.102 65.7254 45.0408L68.3077 44.3556C69.7268 43.9763 71.1925 43.8662 72.6465 44.0497C72.9955 44.0987 73.2979 44.3312 73.4491 44.6738L74.147 46.2399C74.4029 46.8027 74.9729 47.1086 75.5545 46.974L77.0318 46.6314C77.6018 46.4969 78.0089 45.9707 78.0205 45.3467L78.0438 43.8662C78.0554 43.4257 78.2997 43.0342 78.6836 42.8751L82.9293 41.052C84.1623 40.5137 84.9533 39.2657 84.9533 37.8463C84.9533 36.5004 84.6276 35.1667 83.9994 34.0044C83.1154 32.3526 81.6148 31.1657 79.8817 30.7497ZM9.18176 11.8948C9.98437 10.4754 10.6241 8.946 11.0662 7.35538L12.5434 2.03292C12.6016 1.78821 12.7644 1.59244 12.9738 1.48232C13.1832 1.3722 13.4275 1.34773 13.6485 1.44561L32.4809 9.01941C32.7717 9.12953 32.981 9.41095 33.0159 9.7413L33.4696 13.2162C33.5743 14.0727 34.0861 14.8191 34.8189 15.1861L43.985 19.7989C45.5321 20.582 47.1024 21.3284 48.6844 22.0503L46.2882 23.6042C45.8694 23.8733 45.3576 23.9101 44.9039 23.7143L36.68 19.9702C34.435 18.9424 31.7946 19.4074 29.9683 21.1326L25.4783 25.3906L5.88988 17.6699L9.18176 11.8948ZM23.9545 42.6671L22.9658 43.1443C22.4307 43.4135 22.0469 43.9152 21.9073 44.5269L21.8026 45.0286L21.3955 44.1966C20.3137 41.9085 18.4874 40.1956 16.3239 39.3268H19.1505C20.5463 39.3268 21.8724 39.9019 22.8844 40.9419L24.3733 42.4714C24.2337 42.5325 24.0941 42.5937 23.9545 42.6671ZM52.1507 43.7194C51.4877 43.9029 50.9643 44.4168 50.7316 45.0775C49.929 43.6215 48.4983 42.7161 46.9628 42.6427C46.9861 42.6304 46.9977 42.6304 47.021 42.6182L47.4048 42.4836C48.5797 42.0431 49.8708 42.0431 51.0457 42.4836C51.7436 42.7405 52.4183 43.0831 53.058 43.4991C52.744 43.5603 52.4415 43.6337 52.1507 43.7194ZM65.423 43.7683C64.8065 43.9396 64.3179 44.4413 64.1318 45.0898C63.271 43.4869 61.6309 42.557 59.9442 42.6427C60.0489 42.606 60.1536 42.557 60.2699 42.5203L60.6538 42.3735C61.8286 41.933 63.1198 41.933 64.283 42.3735C65.0507 42.6549 65.7836 43.0342 66.4582 43.4991L65.423 43.7683ZM72.8791 39.8774C71.5531 40.2567 70.5062 41.3212 70.0758 42.7161C69.3895 42.7773 68.7032 42.8996 68.0169 43.0831C67.0166 42.2511 65.8999 41.5904 64.6901 41.1499C63.2594 40.6116 61.6774 40.6116 60.2467 41.1499L59.8628 41.2845C58.8276 41.6761 57.8505 42.2144 56.9548 42.8874L56.4895 43.23C55.9428 43.2055 55.3961 43.2055 54.8377 43.2422C53.8141 42.3735 52.6742 41.7128 51.4412 41.2478C50.0104 40.7217 48.4285 40.7217 46.9977 41.2478L46.6139 41.3946C45.5786 41.7739 44.6015 42.3123 43.7058 42.9853L43.6011 43.0709L37.5292 41.3824C33.5975 40.2934 29.4216 40.5014 25.6063 41.9452L23.7335 40.012C22.4889 38.7273 20.8604 38.0299 19.1388 38.0299H12.9971C9.57725 38.0299 6.34353 36.2557 4.35444 33.2825L1.77211 29.4528C1.88843 28.5473 2.03965 27.6541 2.22576 26.7609C2.48167 25.5741 2.80737 24.3995 3.20286 23.2616L20.6626 29.9422L14.6256 35.6684C14.3697 35.9009 14.3464 36.3169 14.5674 36.5861C14.6954 36.7329 14.8582 36.8063 15.0327 36.8063C15.1723 36.8063 15.3119 36.7574 15.4282 36.6472L30.7709 22.0992C32.2482 20.7043 34.3769 20.3373 36.2031 21.1571L44.427 24.9011C45.2296 25.2682 46.1602 25.1948 46.9163 24.7176L50.0686 22.662C57.3038 25.8555 64.7948 28.4127 72.4139 30.2725L79.6141 32.0222C81.01 32.3526 82.2197 33.3192 82.9409 34.6406C83.0689 34.8853 83.1852 35.1423 83.2782 35.3992L82.8595 35.9009C82.0801 36.8553 81.0449 37.5404 79.8933 37.8586L72.8791 39.8774ZM82.464 39.8407L81.894 40.0854C81.7428 39.5593 81.4287 39.1188 81.01 38.8374C82.022 38.4092 82.9176 37.7484 83.6621 36.892C83.7086 37.2101 83.7319 37.516 83.7319 37.8463C83.7319 38.7273 83.2317 39.5104 82.464 39.8407Z" fill="#FF4E27"/>
</g>
</g>
</g>
</svg>
